<svg xmlns="http://www.w3.org/2000/svg" class="rich-terminal" viewBox="0 0 1482 1026"><style>@font-face{font-family:&quot;Fira Code&quot;;src:local(&quot;FiraCode-Regular&quot;),url(https://cdnjs.cloudflare.com/ajax/libs/firacode/6.2.0/woff2/FiraCode-Regular.woff2) format(&quot;woff2&quot;),url(https://cdnjs.cloudflare.com/ajax/libs/firacode/6.2.0/woff/FiraCode-Regular.woff) format(&quot;woff&quot;);font-style:normal;font-weight:400}@font-face{font-family:&quot;Fira Code&quot;;src:local(&quot;FiraCode-Bold&quot;),url(https://cdnjs.cloudflare.com/ajax/libs/firacode/6.2.0/woff2/FiraCode-Bold.woff2) format(&quot;woff2&quot;),url(https://cdnjs.cloudflare.com/ajax/libs/firacode/6.2.0/woff/FiraCode-Bold.woff) format(&quot;woff&quot;);font-style:bold;font-weight:700}.terminal-matrix{font-family:Fira Code,monospace;font-size:20px;line-height:24.4px;font-variant-east-asian:full-width}.terminal-title{font-size:18px;font-weight:700;font-family:arial}.terminal-r2{fill:#ffe165}.terminal-r3{fill:#fff}.terminal-r4{fill:#277dff}.terminal-r5{fill:#fee165}.terminal-r7{fill:#277dff;font-weight:700}.terminal-r8{fill:#4e4e4e}</style><defs><clipPath id="terminal-clip-terminal"><rect width="1463" height="975" x="0" y="0"/></clipPath><clipPath id="terminal-line-0"><rect width="1464" height="24.65" x="0" y="1.5"/></clipPath><clipPath id="terminal-line-1"><rect width="1464" height="24.65" x="0" y="25.9"/></clipPath><clipPath id="terminal-line-2"><rect width="1464" height="24.65" x="0" y="50.3"/></clipPath><clipPath id="terminal-line-3"><rect width="1464" height="24.65" x="0" y="74.7"/></clipPath><clipPath id="terminal-line-4"><rect width="1464" height="24.65" x="0" y="99.1"/></clipPath><clipPath id="terminal-line-5"><rect width="1464" height="24.65" x="0" y="123.5"/></clipPath><clipPath id="terminal-line-6"><rect width="1464" height="24.65" x="0" y="147.9"/></clipPath><clipPath id="terminal-line-7"><rect width="1464" height="24.65" x="0" y="172.3"/></clipPath><clipPath id="terminal-line-8"><rect width="1464" height="24.65" x="0" y="196.7"/></clipPath><clipPath id="terminal-line-9"><rect width="1464" height="24.65" x="0" y="221.1"/></clipPath><clipPath id="terminal-line-10"><rect width="1464" height="24.65" x="0" y="245.5"/></clipPath><clipPath id="terminal-line-11"><rect width="1464" height="24.65" x="0" y="269.9"/></clipPath><clipPath id="terminal-line-12"><rect width="1464" height="24.65" x="0" y="294.3"/></clipPath><clipPath id="terminal-line-13"><rect width="1464" height="24.65" x="0" y="318.7"/></clipPath><clipPath id="terminal-line-14"><rect width="1464" height="24.65" x="0" y="343.1"/></clipPath><clipPath id="terminal-line-15"><rect width="1464" height="24.65" x="0" y="367.5"/></clipPath><clipPath id="terminal-line-16"><rect width="1464" height="24.65" x="0" y="391.9"/></clipPath><clipPath id="terminal-line-17"><rect width="1464" height="24.65" x="0" y="416.3"/></clipPath><clipPath id="terminal-line-18"><rect width="1464" height="24.65" x="0" y="440.7"/></clipPath><clipPath id="terminal-line-19"><rect width="1464" height="24.65" x="0" y="465.1"/></clipPath><clipPath id="terminal-line-20"><rect width="1464" height="24.65" x="0" y="489.5"/></clipPath><clipPath id="terminal-line-21"><rect width="1464" height="24.65" x="0" y="513.9"/></clipPath><clipPath id="terminal-line-22"><rect width="1464" height="24.65" x="0" y="538.3"/></clipPath><clipPath id="terminal-line-23"><rect width="1464" height="24.65" x="0" y="562.7"/></clipPath><clipPath id="terminal-line-24"><rect width="1464" height="24.65" x="0" y="587.1"/></clipPath><clipPath id="terminal-line-25"><rect width="1464" height="24.65" x="0" y="611.5"/></clipPath><clipPath id="terminal-line-26"><rect width="1464" height="24.65" x="0" y="635.9"/></clipPath><clipPath id="terminal-line-27"><rect width="1464" height="24.65" x="0" y="660.3"/></clipPath><clipPath id="terminal-line-28"><rect width="1464" height="24.65" x="0" y="684.7"/></clipPath><clipPath id="terminal-line-29"><rect width="1464" height="24.65" x="0" y="709.1"/></clipPath><clipPath id="terminal-line-30"><rect width="1464" height="24.65" x="0" y="733.5"/></clipPath><clipPath id="terminal-line-31"><rect width="1464" height="24.65" x="0" y="757.9"/></clipPath><clipPath id="terminal-line-32"><rect width="1464" height="24.65" x="0" y="782.3"/></clipPath><clipPath id="terminal-line-33"><rect width="1464" height="24.65" x="0" y="806.7"/></clipPath><clipPath id="terminal-line-34"><rect width="1464" height="24.65" x="0" y="831.1"/></clipPath><clipPath id="terminal-line-35"><rect width="1464" height="24.65" x="0" y="855.5"/></clipPath><clipPath id="terminal-line-36"><rect width="1464" height="24.65" x="0" y="879.9"/></clipPath><clipPath id="terminal-line-37"><rect width="1464" height="24.65" x="0" y="904.3"/></clipPath><clipPath id="terminal-line-38"><rect width="1464" height="24.65" x="0" y="928.7"/></clipPath></defs><rect width="1480" height="1024" x="1" y="1" fill="#292929" stroke="rgba(255,255,255,0.35)" stroke-width="1" rx="8"/><text x="740" y="27" fill="#c5c8c6" class="terminal-title" text-anchor="middle">OpenHandsApp</text><g transform="translate(26,22)"><circle cx="0" cy="0" r="7" fill="#ff5f57"/><circle cx="22" cy="0" r="7" fill="#febc2e"/><circle cx="44" cy="0" r="7" fill="#28c840"/></g><g clip-path="url(#terminal-clip-terminal)" transform="translate(9, 41)"><rect width="1464" height="24.65" x="0" y="1.5" fill="#222" shape-rendering="crispEdges"/><rect width="378.2" height="24.65" x="0" y="25.9" fill="#222" shape-rendering="crispEdges"/><rect width="695.4" height="24.65" x="378.2" y="25.9" fill="#222" shape-rendering="crispEdges"/><rect width="390.4" height="24.65" x="1073.6" y="25.9" fill="#222" shape-rendering="crispEdges"/><rect width="378.2" height="24.65" x="0" y="50.3" fill="#222" shape-rendering="crispEdges"/><rect width="695.4" height="24.65" x="378.2" y="50.3" fill="#222" shape-rendering="crispEdges"/><rect width="390.4" height="24.65" x="1073.6" y="50.3" fill="#222" shape-rendering="crispEdges"/><rect width="378.2" height="24.65" x="0" y="74.7" fill="#222" shape-rendering="crispEdges"/><rect width="695.4" height="24.65" x="378.2" y="74.7" fill="#222" shape-rendering="crispEdges"/><rect width="390.4" height="24.65" x="1073.6" y="74.7" fill="#222" shape-rendering="crispEdges"/><rect width="378.2" height="24.65" x="0" y="99.1" fill="#222" shape-rendering="crispEdges"/><rect width="695.4" height="24.65" x="378.2" y="99.1" fill="#222" shape-rendering="crispEdges"/><rect width="390.4" height="24.65" x="1073.6" y="99.1" fill="#222" shape-rendering="crispEdges"/><rect width="378.2" height="24.65" x="0" y="123.5" fill="#222" shape-rendering="crispEdges"/><rect width="695.4" height="24.65" x="378.2" y="123.5" fill="#222" shape-rendering="crispEdges"/><rect width="390.4" height="24.65" x="1073.6" y="123.5" fill="#222" shape-rendering="crispEdges"/><rect width="378.2" height="24.65" x="0" y="147.9" fill="#222" shape-rendering="crispEdges"/><rect width="695.4" height="24.65" x="378.2" y="147.9" fill="#222" shape-rendering="crispEdges"/><rect width="390.4" height="24.65" x="1073.6" y="147.9" fill="#222" shape-rendering="crispEdges"/><rect width="597.8" height="24.65" x="0" y="172.3" fill="#222" shape-rendering="crispEdges"/><rect width="256.2" height="24.65" x="597.8" y="172.3" fill="#222" shape-rendering="crispEdges"/><rect width="610" height="24.65" x="854" y="172.3" fill="#222" shape-rendering="crispEdges"/><rect width="1464" height="24.65" x="0" y="196.7" fill="#222" shape-rendering="crispEdges"/><rect width="24.4" height="24.65" x="0" y="221.1" fill="#222" shape-rendering="crispEdges"/><rect width="134.2" height="24.65" x="24.4" y="221.1" fill="#222" shape-rendering="crispEdges"/><rect width="1305.4" height="24.65" x="158.6" y="221.1" fill="#222" shape-rendering="crispEdges"/><rect width="24.4" height="24.65" x="0" y="245.5" fill="#222" shape-rendering="crispEdges"/><rect width="292.8" height="24.65" x="24.4" y="245.5" fill="#222" shape-rendering="crispEdges"/><rect width="402.6" height="24.65" x="317.2" y="245.5" fill="#222" shape-rendering="crispEdges"/><rect width="744.2" height="24.65" x="719.8" y="245.5" fill="#222" shape-rendering="crispEdges"/><rect width="1464" height="24.65" x="0" y="269.9" fill="#222" shape-rendering="crispEdges"/><rect width="24.4" height="24.65" x="0" y="294.3" fill="#222" shape-rendering="crispEdges"/><rect width="317.2" height="24.65" x="24.4" y="294.3" fill="#222" shape-rendering="crispEdges"/><rect width="1122.4" height="24.65" x="341.6" y="294.3" fill="#222" shape-rendering="crispEdges"/><rect width="24.4" height="24.65" x="0" y="318.7" fill="#222" shape-rendering="crispEdges"/><rect width="561.2" height="24.65" x="24.4" y="318.7" fill="#222" shape-rendering="crispEdges"/><rect width="878.4" height="24.65" x="585.6" y="318.7" fill="#222" shape-rendering="crispEdges"/><rect width="24.4" height="24.65" x="0" y="343.1" fill="#222" shape-rendering="crispEdges"/><rect width="610" height="24.65" x="24.4" y="343.1" fill="#222" shape-rendering="crispEdges"/><rect width="829.6" height="24.65" x="634.4" y="343.1" fill="#222" shape-rendering="crispEdges"/><rect width="24.4" height="24.65" x="0" y="367.5" fill="#222" shape-rendering="crispEdges"/><rect width="1268.8" height="24.65" x="24.4" y="367.5" fill="#222" shape-rendering="crispEdges"/><rect width="170.8" height="24.65" x="1293.2" y="367.5" fill="#222" shape-rendering="crispEdges"/><rect width="1464" height="24.65" x="0" y="391.9" fill="#222" shape-rendering="crispEdges"/><rect width="1464" height="24.65" x="0" y="416.3" fill="#222" shape-rendering="crispEdges"/><rect width="1464" height="24.65" x="0" y="440.7" fill="#222" shape-rendering="crispEdges"/><rect width="1464" height="24.65" x="0" y="465.1" fill="#222" shape-rendering="crispEdges"/><rect width="1464" height="24.65" x="0" y="489.5" fill="#222" shape-rendering="crispEdges"/><rect width="1464" height="24.65" x="0" y="513.9" fill="#222" shape-rendering="crispEdges"/><rect width="1464" height="24.65" x="0" y="538.3" fill="#222" shape-rendering="crispEdges"/><rect width="1464" height="24.65" x="0" y="562.7" fill="#222" shape-rendering="crispEdges"/><rect width="1464" height="24.65" x="0" y="587.1" fill="#222" shape-rendering="crispEdges"/><rect width="1464" height="24.65" x="0" y="611.5" fill="#222" shape-rendering="crispEdges"/><rect width="1464" height="24.65" x="0" y="635.9" fill="#222" shape-rendering="crispEdges"/><rect width="1464" height="24.65" x="0" y="660.3" fill="#222" shape-rendering="crispEdges"/><rect width="12.2" height="24.65" x="0" y="684.7" fill="#222" shape-rendering="crispEdges"/><rect width="12.2" height="24.65" x="12.2" y="684.7" fill="#222" shape-rendering="crispEdges"/><rect width="1439.6" height="24.65" x="24.4" y="684.7" fill="#222" shape-rendering="crispEdges"/><rect width="12.2" height="24.65" x="0" y="709.1" fill="#222" shape-rendering="crispEdges"/><rect width="1439.6" height="24.65" x="12.2" y="709.1" fill="#222" shape-rendering="crispEdges"/><rect width="12.2" height="24.65" x="1451.8" y="709.1" fill="#222" shape-rendering="crispEdges"/><rect width="12.2" height="24.65" x="0" y="733.5" fill="#222" shape-rendering="crispEdges"/><rect width="12.2" height="24.65" x="12.2" y="733.5" fill="#222" shape-rendering="crispEdges"/><rect width="12.2" height="24.65" x="24.4" y="733.5" fill="#222" shape-rendering="crispEdges"/><rect width="1390.8" height="24.65" x="36.6" y="733.5" fill="#222" shape-rendering="crispEdges"/><rect width="12.2" height="24.65" x="1427.4" y="733.5" fill="#222" shape-rendering="crispEdges"/><rect width="12.2" height="24.65" x="1439.6" y="733.5" fill="#222" shape-rendering="crispEdges"/><rect width="12.2" height="24.65" x="1451.8" y="733.5" fill="#222" shape-rendering="crispEdges"/><rect width="12.2" height="24.65" x="0" y="757.9" fill="#222" shape-rendering="crispEdges"/><rect width="12.2" height="24.65" x="12.2" y="757.9" fill="#222" shape-rendering="crispEdges"/><rect width="12.2" height="24.65" x="24.4" y="757.9" fill="#222" shape-rendering="crispEdges"/><rect width="1390.8" height="24.65" x="36.6" y="757.9" fill="#222" shape-rendering="crispEdges"/><rect width="12.2" height="24.65" x="1427.4" y="757.9" fill="#222" shape-rendering="crispEdges"/><rect width="12.2" height="24.65" x="1439.6" y="757.9" fill="#222" shape-rendering="crispEdges"/><rect width="12.2" height="24.65" x="1451.8" y="757.9" fill="#222" shape-rendering="crispEdges"/><rect width="12.2" height="24.65" x="0" y="782.3" fill="#222" shape-rendering="crispEdges"/><rect width="12.2" height="24.65" x="12.2" y="782.3" fill="#222" shape-rendering="crispEdges"/><rect width="12.2" height="24.65" x="24.4" y="782.3" fill="#222" shape-rendering="crispEdges"/><rect width="12.2" height="24.65" x="36.6" y="782.3" fill="#fff" shape-rendering="crispEdges"/><rect width="1378.6" height="24.65" x="48.8" y="782.3" fill="#2a2a2a" shape-rendering="crispEdges"/><rect width="12.2" height="24.65" x="1427.4" y="782.3" fill="#222" shape-rendering="crispEdges"/><rect width="12.2" height="24.65" x="1439.6" y="782.3" fill="#222" shape-rendering="crispEdges"/><rect width="12.2" height="24.65" x="1451.8" y="782.3" fill="#222" shape-rendering="crispEdges"/><rect width="12.2" height="24.65" x="0" y="806.7" fill="#222" shape-rendering="crispEdges"/><rect width="12.2" height="24.65" x="12.2" y="806.7" fill="#222" shape-rendering="crispEdges"/><rect width="12.2" height="24.65" x="24.4" y="806.7" fill="#222" shape-rendering="crispEdges"/><rect width="1390.8" height="24.65" x="36.6" y="806.7" fill="#222" shape-rendering="crispEdges"/><rect width="12.2" height="24.65" x="1427.4" y="806.7" fill="#222" shape-rendering="crispEdges"/><rect width="12.2" height="24.65" x="1439.6" y="806.7" fill="#222" shape-rendering="crispEdges"/><rect width="12.2" height="24.65" x="1451.8" y="806.7" fill="#222" shape-rendering="crispEdges"/><rect width="12.2" height="24.65" x="0" y="831.1" fill="#222" shape-rendering="crispEdges"/><rect width="1439.6" height="24.65" x="12.2" y="831.1" fill="#222" shape-rendering="crispEdges"/><rect width="12.2" height="24.65" x="1451.8" y="831.1" fill="#222" shape-rendering="crispEdges"/><rect width="12.2" height="24.65" x="0" y="855.5" fill="#222" shape-rendering="crispEdges"/><rect width="1146.8" height="24.65" x="12.2" y="855.5" fill="#222" shape-rendering="crispEdges"/><rect width="280.6" height="24.65" x="1159" y="855.5" fill="#222" shape-rendering="crispEdges"/><rect width="24.4" height="24.65" x="1439.6" y="855.5" fill="#222" shape-rendering="crispEdges"/><rect width="12.2" height="24.65" x="0" y="879.9" fill="#222" shape-rendering="crispEdges"/><rect width="146.4" height="24.65" x="12.2" y="879.9" fill="#222" shape-rendering="crispEdges"/><rect width="1305.4" height="24.65" x="158.6" y="879.9" fill="#222" shape-rendering="crispEdges"/><rect width="1464" height="24.65" x="0" y="904.3" fill="#222" shape-rendering="crispEdges"/><rect width="1464" height="24.65" x="0" y="928.7" fill="#222" shape-rendering="crispEdges"/><rect width="48.8" height="24.65" x="0" y="953.1" fill="#222" shape-rendering="crispEdges"/><rect width="134.2" height="24.65" x="48.8" y="953.1" fill="#222" shape-rendering="crispEdges"/><rect width="48.8" height="24.65" x="183" y="953.1" fill="#222" shape-rendering="crispEdges"/><rect width="256.2" height="24.65" x="231.8" y="953.1" fill="#222" shape-rendering="crispEdges"/><rect width="48.8" height="24.65" x="488" y="953.1" fill="#222" shape-rendering="crispEdges"/><rect width="378.2" height="24.65" x="536.8" y="953.1" fill="#222" shape-rendering="crispEdges"/><rect width="48.8" height="24.65" x="915" y="953.1" fill="#222" shape-rendering="crispEdges"/><rect width="292.8" height="24.65" x="963.8" y="953.1" fill="#222" shape-rendering="crispEdges"/><rect width="48.8" height="24.65" x="1256.6" y="953.1" fill="#222" shape-rendering="crispEdges"/><rect width="12.2" height="24.65" x="1305.4" y="953.1" fill="#222" shape-rendering="crispEdges"/><rect width="12.2" height="24.65" x="1317.6" y="953.1" fill="#222" shape-rendering="crispEdges"/><rect width="24.4" height="24.65" x="1329.8" y="953.1" fill="#222" shape-rendering="crispEdges"/><rect width="97.6" height="24.65" x="1354.2" y="953.1" fill="#222" shape-rendering="crispEdges"/><rect width="12.2" height="24.65" x="1451.8" y="953.1" fill="#222" shape-rendering="crispEdges"/><g class="terminal-matrix"><text x="378.2" y="44.4" class="terminal-r2" clip-path="url(#terminal-line-1)" textLength="695.4">___ _ _ _</text><text x="378.2" y="68.8" class="terminal-r2" clip-path="url(#terminal-line-2)" textLength="695.4">/ _ \ _ __ ___ _ __ | | | | __ _ _ __ __| |___</text><text x="378.2" y="93.2" class="terminal-r2" clip-path="url(#terminal-line-3)" textLength="695.4">| | | | &apos;_ \ / _ \ &apos;_ \| |_| |/ _` | &apos;_ \ / _` / __|</text><text x="378.2" y="117.6" class="terminal-r2" clip-path="url(#terminal-line-4)" textLength="695.4">| |_| | |_) | __/ | | | _ | (_| | | | | (_| \__ \</text><text x="378.2" y="142" class="terminal-r2" clip-path="url(#terminal-line-5)" textLength="695.4">\___ /| .__/ \___|_| |_|_| |_|\__,_|_| |_|\__,_|___/</text><text x="378.2" y="166.4" class="terminal-r2" clip-path="url(#terminal-line-6)" textLength="695.4">|_|</text><text x="597.8" y="190.8" class="terminal-r3" clip-path="url(#terminal-line-7)" textLength="256.2">OpenHands CLI v1.16.0</text><text x="24.4" y="239.6" class="terminal-r3" clip-path="url(#terminal-line-9)" textLength="134.2">All set up!</text><text x="24.4" y="264" class="terminal-r4" clip-path="url(#terminal-line-10)" textLength="292.8">Initialized conversation</text><text x="317.2" y="264" class="terminal-r3" clip-path="url(#terminal-line-10)" textLength="402.6">00000000000000000000000000000001</text><text x="24.4" y="312.8" class="terminal-r2" clip-path="url(#terminal-line-12)" textLength="317.2">What do you want to build?</text><text x="24.4" y="337.2" class="terminal-r3" clip-path="url(#terminal-line-13)" textLength="561.2">1. Ask questions, edit files, or run commands.</text><text x="24.4" y="361.6" class="terminal-r3" clip-path="url(#terminal-line-14)" textLength="610">2. Use @ to look up a file in the folder structure</text><text x="24.4" y="386" class="terminal-r3" clip-path="url(#terminal-line-15)" textLength="1268.8">3. Type /help for help, /feedback to leave anonymous feedback, or / to scroll through available commands</text><text x="12.2" y="727.6" class="terminal-r5" clip-path="url(#terminal-line-29)" textLength="1439.6">╭────────────────────────────────────────────────────────────────────────────────────────────────────────────────────╮</text><text x="12.2" y="752" class="terminal-r5" clip-path="url(#terminal-line-30)" textLength="12.2">│</text><text x="36.6" y="752" class="terminal-r3" clip-path="url(#terminal-line-30)" textLength="1390.8">echo hello world</text><text x="1439.6" y="752" class="terminal-r5" clip-path="url(#terminal-line-30)" textLength="12.2">│</text><text x="12.2" y="776.4" class="terminal-r5" clip-path="url(#terminal-line-31)" textLength="12.2">│</text><text x="1439.6" y="776.4" class="terminal-r5" clip-path="url(#terminal-line-31)" textLength="12.2">│</text><text x="12.2" y="800.8" class="terminal-r5" clip-path="url(#terminal-line-32)" textLength="12.2">│</text><text x="1439.6" y="800.8" class="terminal-r5" clip-path="url(#terminal-line-32)" textLength="12.2">│</text><text x="12.2" y="825.2" class="terminal-r5" clip-path="url(#terminal-line-33)" textLength="12.2">│</text><text x="1439.6" y="825.2" class="terminal-r5" clip-path="url(#terminal-line-33)" textLength="12.2">│</text><text x="12.2" y="849.6" class="terminal-r5" clip-path="url(#terminal-line-34)" textLength="1439.6">╰────────────────────────────────────────────────────────────────────────────────────────────────────────────────────╯</text><text x="12.2" y="874" class="terminal-r3" clip-path="url(#terminal-line-35)" textLength="1146.8">[Multi-line: Ctrl+J to submit • Ctrl+X for custom editor] • /tmp/openhands-e2e-test-workspace</text><text x="1159" y="874" class="terminal-r3" clip-path="url(#terminal-line-35)" textLength="280.6">ctx N/A • $ 0.00 (↑ 0 ↓</text><text x="12.2" y="898.4" class="terminal-r3" clip-path="url(#terminal-line-36)" textLength="146.4">0 cache N/A)</text><text x="0" y="971.6" class="terminal-r7" clip-path="url(#terminal-line-39)" textLength="48.8">^a</text><text x="48.8" y="971.6" class="terminal-r3" clip-path="url(#terminal-line-39)" textLength="134.2">Select all</text><text x="183" y="971.6" class="terminal-r7" clip-path="url(#terminal-line-39)" textLength="48.8">^x</text><text x="231.8" y="971.6" class="terminal-r3" clip-path="url(#terminal-line-39)" textLength="256.2">Open external editor</text><text x="488" y="971.6" class="terminal-r7" clip-path="url(#terminal-line-39)" textLength="48.8">^l</text><text x="536.8" y="971.6" class="terminal-r3" clip-path="url(#terminal-line-39)" textLength="378.2">Toggle single/multi-line input</text><text x="915" y="971.6" class="terminal-r7" clip-path="url(#terminal-line-39)" textLength="48.8">^j</text><text x="963.8" y="971.6" class="terminal-r3" clip-path="url(#terminal-line-39)" textLength="292.8">Submit multi-line input</text><text x="1256.6" y="971.6" class="terminal-r7" clip-path="url(#terminal-line-39)" textLength="48.8">^q</text><text x="1305.4" y="971.6" class="terminal-r3" clip-path="url(#terminal-line-39)" textLength="12.2">Q</text><text x="1317.6" y="971.6" class="terminal-r8" clip-path="url(#terminal-line-39)" textLength="12.2">▏</text><text x="1329.8" y="971.6" class="terminal-r7" clip-path="url(#terminal-line-39)" textLength="24.4">^p</text><text x="1354.2" y="971.6" class="terminal-r3" clip-path="url(#terminal-line-39)" textLength="97.6">palette</text></g></g></svg>