<svg xmlns="http://www.w3.org/2000/svg" class="rich-terminal" viewBox="0 0 1482 1026"><style>@font-face{font-family:&quot;Fira Code&quot;;src:local(&quot;FiraCode-Regular&quot;),url(https://cdnjs.cloudflare.com/ajax/libs/firacode/6.2.0/woff2/FiraCode-Regular.woff2) format(&quot;woff2&quot;),url(https://cdnjs.cloudflare.com/ajax/libs/firacode/6.2.0/woff/FiraCode-Regular.woff) format(&quot;woff&quot;);font-style:normal;font-weight:400}@font-face{font-family:&quot;Fira Code&quot;;src:local(&quot;FiraCode-Bold&quot;),url(https://cdnjs.cloudflare.com/ajax/libs/firacode/6.2.0/woff2/FiraCode-Bold.woff2) format(&quot;woff2&quot;),url(https://cdnjs.cloudflare.com/ajax/libs/firacode/6.2.0/woff/FiraCode-Bold.woff) format(&quot;woff&quot;);font-style:bold;font-weight:700}.terminal-matrix{font-family:Fira Code,monospace;font-size:20px;line-height:24.4px;font-variant-east-asian:full-width}.terminal-title{font-size:18px;font-weight:700;font-family:arial}.terminal-r1{fill:#fff}.terminal-r3{fill:#322d14}.terminal-r4{fill:#333}.terminal-r5{fill:#ccb552}.terminal-r6{fill:#ff9491}.terminal-r7{fill:#ffffa2}.terminal-r8,.terminal-r9{fill:#fe7272;font-weight:700}.terminal-r9{fill:#211d0d}.terminal-r10{fill:#b82936}.terminal-r11{fill:#bba325}.terminal-r12{fill:#060606}.terminal-r13{fill:#181818}.terminal-r14{fill:#277dff;font-weight:700}</style><defs><clipPath id="terminal-clip-terminal"><rect width="1463" height="975" x="0" y="0"/></clipPath><clipPath id="terminal-line-0"><rect width="1464" height="24.65" x="0" y="1.5"/></clipPath><clipPath id="terminal-line-1"><rect width="1464" height="24.65" x="0" y="25.9"/></clipPath><clipPath id="terminal-line-2"><rect width="1464" height="24.65" x="0" y="50.3"/></clipPath><clipPath id="terminal-line-3"><rect width="1464" height="24.65" x="0" y="74.7"/></clipPath><clipPath id="terminal-line-4"><rect width="1464" height="24.65" x="0" y="99.1"/></clipPath><clipPath id="terminal-line-5"><rect width="1464" height="24.65" x="0" y="123.5"/></clipPath><clipPath id="terminal-line-6"><rect width="1464" height="24.65" x="0" y="147.9"/></clipPath><clipPath id="terminal-line-7"><rect width="1464" height="24.65" x="0" y="172.3"/></clipPath><clipPath id="terminal-line-8"><rect width="1464" height="24.65" x="0" y="196.7"/></clipPath><clipPath id="terminal-line-9"><rect width="1464" height="24.65" x="0" y="221.1"/></clipPath><clipPath id="terminal-line-10"><rect width="1464" height="24.65" x="0" y="245.5"/></clipPath><clipPath id="terminal-line-11"><rect width="1464" height="24.65" x="0" y="269.9"/></clipPath><clipPath id="terminal-line-12"><rect width="1464" height="24.65" x="0" y="294.3"/></clipPath><clipPath id="terminal-line-13"><rect width="1464" height="24.65" x="0" y="318.7"/></clipPath><clipPath id="terminal-line-14"><rect width="1464" height="24.65" x="0" y="343.1"/></clipPath><clipPath id="terminal-line-15"><rect width="1464" height="24.65" x="0" y="367.5"/></clipPath><clipPath id="terminal-line-16"><rect width="1464" height="24.65" x="0" y="391.9"/></clipPath><clipPath id="terminal-line-17"><rect width="1464" height="24.65" x="0" y="416.3"/></clipPath><clipPath id="terminal-line-18"><rect width="1464" height="24.65" x="0" y="440.7"/></clipPath><clipPath id="terminal-line-19"><rect width="1464" height="24.65" x="0" y="465.1"/></clipPath><clipPath id="terminal-line-20"><rect width="1464" height="24.65" x="0" y="489.5"/></clipPath><clipPath id="terminal-line-21"><rect width="1464" height="24.65" x="0" y="513.9"/></clipPath><clipPath id="terminal-line-22"><rect width="1464" height="24.65" x="0" y="538.3"/></clipPath><clipPath id="terminal-line-23"><rect width="1464" height="24.65" x="0" y="562.7"/></clipPath><clipPath id="terminal-line-24"><rect width="1464" height="24.65" x="0" y="587.1"/></clipPath><clipPath id="terminal-line-25"><rect width="1464" height="24.65" x="0" y="611.5"/></clipPath><clipPath id="terminal-line-26"><rect width="1464" height="24.65" x="0" y="635.9"/></clipPath><clipPath id="terminal-line-27"><rect width="1464" height="24.65" x="0" y="660.3"/></clipPath><clipPath id="terminal-line-28"><rect width="1464" height="24.65" x="0" y="684.7"/></clipPath><clipPath id="terminal-line-29"><rect width="1464" height="24.65" x="0" y="709.1"/></clipPath><clipPath id="terminal-line-30"><rect width="1464" height="24.65" x="0" y="733.5"/></clipPath><clipPath id="terminal-line-31"><rect width="1464" height="24.65" x="0" y="757.9"/></clipPath><clipPath id="terminal-line-32"><rect width="1464" height="24.65" x="0" y="782.3"/></clipPath><clipPath id="terminal-line-33"><rect width="1464" height="24.65" x="0" y="806.7"/></clipPath><clipPath id="terminal-line-34"><rect width="1464" height="24.65" x="0" y="831.1"/></clipPath><clipPath id="terminal-line-35"><rect width="1464" height="24.65" x="0" y="855.5"/></clipPath><clipPath id="terminal-line-36"><rect width="1464" height="24.65" x="0" y="879.9"/></clipPath><clipPath id="terminal-line-37"><rect width="1464" height="24.65" x="0" y="904.3"/></clipPath><clipPath id="terminal-line-38"><rect width="1464" height="24.65" x="0" y="928.7"/></clipPath></defs><rect width="1480" height="1024" x="1" y="1" fill="#292929" stroke="rgba(255,255,255,0.35)" stroke-width="1" rx="8"/><text x="740" y="27" fill="#c5c8c6" class="terminal-title" text-anchor="middle">OpenHandsApp</text><g transform="translate(26,22)"><circle cx="0" cy="0" r="7" fill="#ff5f57"/><circle cx="22" cy="0" r="7" fill="#febc2e"/><circle cx="44" cy="0" r="7" fill="#28c840"/></g><g clip-path="url(#terminal-clip-terminal)" transform="translate(9, 41)"><rect width="1464" height="24.65" x="0" y="1.5" fill="#060606" shape-rendering="crispEdges"/><rect width="732" height="24.65" x="0" y="25.9" fill="#060606" shape-rendering="crispEdges"/><rect width="0" height="24.65" x="732" y="25.9" fill="#060606" shape-rendering="crispEdges"/><rect width="732" height="24.65" x="732" y="25.9" fill="#060606" shape-rendering="crispEdges"/><rect width="732" height="24.65" x="0" y="50.3" fill="#060606" shape-rendering="crispEdges"/><rect width="0" height="24.65" x="732" y="50.3" fill="#060606" shape-rendering="crispEdges"/><rect width="732" height="24.65" x="732" y="50.3" fill="#060606" shape-rendering="crispEdges"/><rect width="1464" height="24.65" x="0" y="74.7" fill="#060606" shape-rendering="crispEdges"/><rect width="1464" height="24.65" x="0" y="99.1" fill="#060606" shape-rendering="crispEdges"/><rect width="24.4" height="24.65" x="0" y="123.5" fill="#060606" shape-rendering="crispEdges"/><rect width="0" height="24.65" x="24.4" y="123.5" fill="#060606" shape-rendering="crispEdges"/><rect width="1439.6" height="24.65" x="24.4" y="123.5" fill="#060606" shape-rendering="crispEdges"/><rect width="24.4" height="24.65" x="0" y="147.9" fill="#060606" shape-rendering="crispEdges"/><rect width="0" height="24.65" x="24.4" y="147.9" fill="#060606" shape-rendering="crispEdges"/><rect width="1439.6" height="24.65" x="24.4" y="147.9" fill="#060606" shape-rendering="crispEdges"/><rect width="1464" height="24.65" x="0" y="172.3" fill="#060606" shape-rendering="crispEdges"/><rect width="24.4" height="24.65" x="0" y="196.7" fill="#060606" shape-rendering="crispEdges"/><rect width="0" height="24.65" x="24.4" y="196.7" fill="#060606" shape-rendering="crispEdges"/><rect width="1439.6" height="24.65" x="24.4" y="196.7" fill="#060606" shape-rendering="crispEdges"/><rect width="24.4" height="24.65" x="0" y="221.1" fill="#060606" shape-rendering="crispEdges"/><rect width="0" height="24.65" x="24.4" y="221.1" fill="#060606" shape-rendering="crispEdges"/><rect width="1439.6" height="24.65" x="24.4" y="221.1" fill="#060606" shape-rendering="crispEdges"/><rect width="1464" height="24.65" x="0" y="245.5" fill="#060606" shape-rendering="crispEdges"/><rect width="1464" height="24.65" x="0" y="269.9" fill="#060606" shape-rendering="crispEdges"/><rect width="1464" height="24.65" x="0" y="294.3" fill="#060606" shape-rendering="crispEdges"/><rect width="366" height="24.65" x="0" y="318.7" fill="#060606" shape-rendering="crispEdges"/><rect width="732" height="24.65" x="366" y="318.7" fill="#1f1f1f" shape-rendering="crispEdges"/><rect width="366" height="24.65" x="1098" y="318.7" fill="#060606" shape-rendering="crispEdges"/><rect width="366" height="24.65" x="0" y="343.1" fill="#060606" shape-rendering="crispEdges"/><rect width="12.2" height="24.65" x="366" y="343.1" fill="#1f1f1f" shape-rendering="crispEdges"/><rect width="707.6" height="24.65" x="378.2" y="343.1" fill="#1f1f1f" shape-rendering="crispEdges"/><rect width="12.2" height="24.65" x="1085.8" y="343.1" fill="#1f1f1f" shape-rendering="crispEdges"/><rect width="366" height="24.65" x="1098" y="343.1" fill="#060606" shape-rendering="crispEdges"/><rect width="366" height="24.65" x="0" y="367.5" fill="#060606" shape-rendering="crispEdges"/><rect width="12.2" height="24.65" x="366" y="367.5" fill="#1f1f1f" shape-rendering="crispEdges"/><rect width="707.6" height="24.65" x="378.2" y="367.5" fill="#1f1f1f" shape-rendering="crispEdges"/><rect width="12.2" height="24.65" x="1085.8" y="367.5" fill="#1f1f1f" shape-rendering="crispEdges"/><rect width="366" height="24.65" x="1098" y="367.5" fill="#060606" shape-rendering="crispEdges"/><rect width="366" height="24.65" x="0" y="391.9" fill="#060606" shape-rendering="crispEdges"/><rect width="12.2" height="24.65" x="366" y="391.9" fill="#1f1f1f" shape-rendering="crispEdges"/><rect width="707.6" height="24.65" x="378.2" y="391.9" fill="#1f1f1f" shape-rendering="crispEdges"/><rect width="12.2" height="24.65" x="1085.8" y="391.9" fill="#1f1f1f" shape-rendering="crispEdges"/><rect width="366" height="24.65" x="1098" y="391.9" fill="#060606" shape-rendering="crispEdges"/><rect width="366" height="24.65" x="0" y="416.3" fill="#060606" shape-rendering="crispEdges"/><rect width="12.2" height="24.65" x="366" y="416.3" fill="#1f1f1f" shape-rendering="crispEdges"/><rect width="24.4" height="24.65" x="378.2" y="416.3" fill="#1f1f1f" shape-rendering="crispEdges"/><rect width="219.6" height="24.65" x="402.6" y="416.3" fill="#1f1f1f" shape-rendering="crispEdges"/><rect width="219.6" height="24.65" x="622.2" y="416.3" fill="#1f1f1f" shape-rendering="crispEdges"/><rect width="219.6" height="24.65" x="841.8" y="416.3" fill="#1f1f1f" shape-rendering="crispEdges"/><rect width="24.4" height="24.65" x="1061.4" y="416.3" fill="#1f1f1f" shape-rendering="crispEdges"/><rect width="12.2" height="24.65" x="1085.8" y="416.3" fill="#1f1f1f" shape-rendering="crispEdges"/><rect width="366" height="24.65" x="1098" y="416.3" fill="#060606" shape-rendering="crispEdges"/><rect width="366" height="24.65" x="0" y="440.7" fill="#060606" shape-rendering="crispEdges"/><rect width="12.2" height="24.65" x="366" y="440.7" fill="#1f1f1f" shape-rendering="crispEdges"/><rect width="707.6" height="24.65" x="378.2" y="440.7" fill="#1f1f1f" shape-rendering="crispEdges"/><rect width="12.2" height="24.65" x="1085.8" y="440.7" fill="#1f1f1f" shape-rendering="crispEdges"/><rect width="366" height="24.65" x="1098" y="440.7" fill="#060606" shape-rendering="crispEdges"/><rect width="366" height="24.65" x="0" y="465.1" fill="#060606" shape-rendering="crispEdges"/><rect width="12.2" height="24.65" x="366" y="465.1" fill="#1f1f1f" shape-rendering="crispEdges"/><rect width="707.6" height="24.65" x="378.2" y="465.1" fill="#1f1f1f" shape-rendering="crispEdges"/><rect width="12.2" height="24.65" x="1085.8" y="465.1" fill="#1f1f1f" shape-rendering="crispEdges"/><rect width="366" height="24.65" x="1098" y="465.1" fill="#060606" shape-rendering="crispEdges"/><rect width="366" height="24.65" x="0" y="489.5" fill="#060606" shape-rendering="crispEdges"/><rect width="12.2" height="24.65" x="366" y="489.5" fill="#1f1f1f" shape-rendering="crispEdges"/><rect width="707.6" height="24.65" x="378.2" y="489.5" fill="#1f1f1f" shape-rendering="crispEdges"/><rect width="12.2" height="24.65" x="1085.8" y="489.5" fill="#1f1f1f" shape-rendering="crispEdges"/><rect width="366" height="24.65" x="1098" y="489.5" fill="#060606" shape-rendering="crispEdges"/><rect width="366" height="24.65" x="0" y="513.9" fill="#060606" shape-rendering="crispEdges"/><rect width="12.2" height="24.65" x="366" y="513.9" fill="#1f1f1f" shape-rendering="crispEdges"/><rect width="36.6" height="24.65" x="378.2" y="513.9" fill="#1f1f1f" shape-rendering="crispEdges"/><rect width="292.8" height="24.65" x="414.8" y="513.9" fill="#fe7272" shape-rendering="crispEdges"/><rect width="48.8" height="24.65" x="707.6" y="513.9" fill="#1f1f1f" shape-rendering="crispEdges"/><rect width="292.8" height="24.65" x="756.4" y="513.9" fill="#fee165" shape-rendering="crispEdges"/><rect width="36.6" height="24.65" x="1049.2" y="513.9" fill="#1f1f1f" shape-rendering="crispEdges"/><rect width="12.2" height="24.65" x="1085.8" y="513.9" fill="#1f1f1f" shape-rendering="crispEdges"/><rect width="366" height="24.65" x="1098" y="513.9" fill="#060606" shape-rendering="crispEdges"/><rect width="366" height="24.65" x="0" y="538.3" fill="#060606" shape-rendering="crispEdges"/><rect width="12.2" height="24.65" x="366" y="538.3" fill="#1f1f1f" shape-rendering="crispEdges"/><rect width="36.6" height="24.65" x="378.2" y="538.3" fill="#1f1f1f" shape-rendering="crispEdges"/><rect width="61" height="24.65" x="414.8" y="538.3" fill="#fe7272" shape-rendering="crispEdges"/><rect width="170.8" height="24.65" x="475.8" y="538.3" fill="#210e0e" shape-rendering="crispEdges"/><rect width="61" height="24.65" x="646.6" y="538.3" fill="#fe7272" shape-rendering="crispEdges"/><rect width="48.8" height="24.65" x="707.6" y="538.3" fill="#1f1f1f" shape-rendering="crispEdges"/><rect width="61" height="24.65" x="756.4" y="538.3" fill="#fee165" shape-rendering="crispEdges"/><rect width="158.6" height="24.65" x="817.4" y="538.3" fill="#fee165" shape-rendering="crispEdges"/><rect width="73.2" height="24.65" x="976" y="538.3" fill="#fee165" shape-rendering="crispEdges"/><rect width="36.6" height="24.65" x="1049.2" y="538.3" fill="#1f1f1f" shape-rendering="crispEdges"/><rect width="12.2" height="24.65" x="1085.8" y="538.3" fill="#1f1f1f" shape-rendering="crispEdges"/><rect width="366" height="24.65" x="1098" y="538.3" fill="#060606" shape-rendering="crispEdges"/><rect width="366" height="24.65" x="0" y="562.7" fill="#060606" shape-rendering="crispEdges"/><rect width="12.2" height="24.65" x="366" y="562.7" fill="#1f1f1f" shape-rendering="crispEdges"/><rect width="36.6" height="24.65" x="378.2" y="562.7" fill="#1f1f1f" shape-rendering="crispEdges"/><rect width="292.8" height="24.65" x="414.8" y="562.7" fill="#fe7272" shape-rendering="crispEdges"/><rect width="48.8" height="24.65" x="707.6" y="562.7" fill="#1f1f1f" shape-rendering="crispEdges"/><rect width="292.8" height="24.65" x="756.4" y="562.7" fill="#fee165" shape-rendering="crispEdges"/><rect width="36.6" height="24.65" x="1049.2" y="562.7" fill="#1f1f1f" shape-rendering="crispEdges"/><rect width="12.2" height="24.65" x="1085.8" y="562.7" fill="#1f1f1f" shape-rendering="crispEdges"/><rect width="366" height="24.65" x="1098" y="562.7" fill="#060606" shape-rendering="crispEdges"/><rect width="366" height="24.65" x="0" y="587.1" fill="#060606" shape-rendering="crispEdges"/><rect width="12.2" height="24.65" x="366" y="587.1" fill="#1f1f1f" shape-rendering="crispEdges"/><rect width="707.6" height="24.65" x="378.2" y="587.1" fill="#1f1f1f" shape-rendering="crispEdges"/><rect width="12.2" height="24.65" x="1085.8" y="587.1" fill="#1f1f1f" shape-rendering="crispEdges"/><rect width="366" height="24.65" x="1098" y="587.1" fill="#060606" shape-rendering="crispEdges"/><rect width="366" height="24.65" x="0" y="611.5" fill="#060606" shape-rendering="crispEdges"/><rect width="732" height="24.65" x="366" y="611.5" fill="#1f1f1f" shape-rendering="crispEdges"/><rect width="366" height="24.65" x="1098" y="611.5" fill="#060606" shape-rendering="crispEdges"/><rect width="1464" height="24.65" x="0" y="635.9" fill="#060606" shape-rendering="crispEdges"/><rect width="1464" height="24.65" x="0" y="660.3" fill="#060606" shape-rendering="crispEdges"/><rect width="1464" height="24.65" x="0" y="684.7" fill="#060606" shape-rendering="crispEdges"/><rect width="1464" height="24.65" x="0" y="709.1" fill="#060606" shape-rendering="crispEdges"/><rect width="1464" height="24.65" x="0" y="733.5" fill="#060606" shape-rendering="crispEdges"/><rect width="12.2" height="24.65" x="0" y="757.9" fill="#060606" shape-rendering="crispEdges"/><rect width="12.2" height="24.65" x="12.2" y="757.9" fill="#060606" shape-rendering="crispEdges"/><rect width="1439.6" height="24.65" x="24.4" y="757.9" fill="#060606" shape-rendering="crispEdges"/><rect width="12.2" height="24.65" x="0" y="782.3" fill="#060606" shape-rendering="crispEdges"/><rect width="1439.6" height="24.65" x="12.2" y="782.3" fill="#060606" shape-rendering="crispEdges"/><rect width="12.2" height="24.65" x="1451.8" y="782.3" fill="#060606" shape-rendering="crispEdges"/><rect width="12.2" height="24.65" x="0" y="806.7" fill="#060606" shape-rendering="crispEdges"/><rect width="12.2" height="24.65" x="12.2" y="806.7" fill="#060606" shape-rendering="crispEdges"/><rect width="12.2" height="24.65" x="24.4" y="806.7" fill="#060606" shape-rendering="crispEdges"/><rect width="12.2" height="24.65" x="36.6" y="806.7" fill="#333" shape-rendering="crispEdges"/><rect width="634.4" height="24.65" x="48.8" y="806.7" fill="#060606" shape-rendering="crispEdges"/><rect width="756.4" height="24.65" x="683.2" y="806.7" fill="#060606" shape-rendering="crispEdges"/><rect width="12.2" height="24.65" x="1439.6" y="806.7" fill="#060606" shape-rendering="crispEdges"/><rect width="12.2" height="24.65" x="1451.8" y="806.7" fill="#060606" shape-rendering="crispEdges"/><rect width="12.2" height="24.65" x="0" y="831.1" fill="#060606" shape-rendering="crispEdges"/><rect width="1439.6" height="24.65" x="12.2" y="831.1" fill="#060606" shape-rendering="crispEdges"/><rect width="12.2" height="24.65" x="1451.8" y="831.1" fill="#060606" shape-rendering="crispEdges"/><rect width="12.2" height="24.65" x="0" y="855.5" fill="#060606" shape-rendering="crispEdges"/><rect width="1439.6" height="24.65" x="12.2" y="855.5" fill="#060606" shape-rendering="crispEdges"/><rect width="12.2" height="24.65" x="1451.8" y="855.5" fill="#060606" shape-rendering="crispEdges"/><rect width="12.2" height="24.65" x="0" y="879.9" fill="#060606" shape-rendering="crispEdges"/><rect width="48.8" height="24.65" x="12.2" y="879.9" fill="#060606" shape-rendering="crispEdges"/><rect width="1403" height="24.65" x="61" y="879.9" fill="#060606" shape-rendering="crispEdges"/><rect width="1464" height="24.65" x="0" y="904.3" fill="#060606" shape-rendering="crispEdges"/><rect width="1464" height="24.65" x="0" y="928.7" fill="#060606" shape-rendering="crispEdges"/><rect width="48.8" height="24.65" x="0" y="953.1" fill="#222" shape-rendering="crispEdges"/><rect width="61" height="24.65" x="48.8" y="953.1" fill="#222" shape-rendering="crispEdges"/><rect width="61" height="24.65" x="109.8" y="953.1" fill="#222" shape-rendering="crispEdges"/><rect width="85.4" height="24.65" x="170.8" y="953.1" fill="#222" shape-rendering="crispEdges"/><rect width="1207.8" height="24.65" x="256.2" y="953.1" fill="#222" shape-rendering="crispEdges"/><g class="terminal-matrix"><text x="366" y="337.2" class="terminal-r5" clip-path="url(#terminal-line-13)" textLength="732">╭──────────────────────────────────────────────────────────╮</text><text x="366" y="361.6" class="terminal-r5" clip-path="url(#terminal-line-14)" textLength="12.2">│</text><text x="1085.8" y="361.6" class="terminal-r5" clip-path="url(#terminal-line-14)" textLength="12.2">│</text><text x="366" y="386" class="terminal-r5" clip-path="url(#terminal-line-15)" textLength="12.2">│</text><text x="1085.8" y="386" class="terminal-r5" clip-path="url(#terminal-line-15)" textLength="12.2">│</text><text x="366" y="410.4" class="terminal-r5" clip-path="url(#terminal-line-16)" textLength="12.2">│</text><text x="1085.8" y="410.4" class="terminal-r5" clip-path="url(#terminal-line-16)" textLength="12.2">│</text><text x="366" y="434.8" class="terminal-r5" clip-path="url(#terminal-line-17)" textLength="12.2">│</text><text x="622.2" y="434.8" class="terminal-r1" clip-path="url(#terminal-line-17)" textLength="219.6">Terminate session?</text><text x="1085.8" y="434.8" class="terminal-r5" clip-path="url(#terminal-line-17)" textLength="12.2">│</text><text x="366" y="459.2" class="terminal-r5" clip-path="url(#terminal-line-18)" textLength="12.2">│</text><text x="1085.8" y="459.2" class="terminal-r5" clip-path="url(#terminal-line-18)" textLength="12.2">│</text><text x="366" y="483.6" class="terminal-r5" clip-path="url(#terminal-line-19)" textLength="12.2">│</text><text x="1085.8" y="483.6" class="terminal-r5" clip-path="url(#terminal-line-19)" textLength="12.2">│</text><text x="366" y="508" class="terminal-r5" clip-path="url(#terminal-line-20)" textLength="12.2">│</text><text x="1085.8" y="508" class="terminal-r5" clip-path="url(#terminal-line-20)" textLength="12.2">│</text><text x="366" y="532.4" class="terminal-r5" clip-path="url(#terminal-line-21)" textLength="12.2">│</text><text x="414.8" y="532.4" class="terminal-r6" clip-path="url(#terminal-line-21)" textLength="292.8">▔▔▔▔▔▔▔▔▔▔▔▔▔▔▔▔▔▔▔▔▔▔▔▔</text><text x="756.4" y="532.4" class="terminal-r7" clip-path="url(#terminal-line-21)" textLength="292.8">▔▔▔▔▔▔▔▔▔▔▔▔▔▔▔▔▔▔▔▔▔▔▔▔</text><text x="1085.8" y="532.4" class="terminal-r5" clip-path="url(#terminal-line-21)" textLength="12.2">│</text><text x="366" y="556.8" class="terminal-r5" clip-path="url(#terminal-line-22)" textLength="12.2">│</text><text x="475.8" y="556.8" class="terminal-r8" clip-path="url(#terminal-line-22)" textLength="170.8">Yes, proceed</text><text x="817.4" y="556.8" class="terminal-r9" clip-path="url(#terminal-line-22)" textLength="158.6">No, dismiss</text><text x="1085.8" y="556.8" class="terminal-r5" clip-path="url(#terminal-line-22)" textLength="12.2">│</text><text x="366" y="581.2" class="terminal-r5" clip-path="url(#terminal-line-23)" textLength="12.2">│</text><text x="414.8" y="581.2" class="terminal-r10" clip-path="url(#terminal-line-23)" textLength="292.8">▁▁▁▁▁▁▁▁▁▁▁▁▁▁▁▁▁▁▁▁▁▁▁▁</text><text x="756.4" y="581.2" class="terminal-r11" clip-path="url(#terminal-line-23)" textLength="292.8">▁▁▁▁▁▁▁▁▁▁▁▁▁▁▁▁▁▁▁▁▁▁▁▁</text><text x="1085.8" y="581.2" class="terminal-r5" clip-path="url(#terminal-line-23)" textLength="12.2">│</text><text x="366" y="605.6" class="terminal-r5" clip-path="url(#terminal-line-24)" textLength="12.2">│</text><text x="1085.8" y="605.6" class="terminal-r5" clip-path="url(#terminal-line-24)" textLength="12.2">│</text><text x="366" y="630" class="terminal-r5" clip-path="url(#terminal-line-25)" textLength="732">╰──────────────────────────────────────────────────────────╯</text><text x="12.2" y="800.8" class="terminal-r3" clip-path="url(#terminal-line-32)" textLength="1439.6">╭────────────────────────────────────────────────────────────────────────────────────────────────────────────────────╮</text><text x="12.2" y="825.2" class="terminal-r3" clip-path="url(#terminal-line-33)" textLength="12.2">│</text><text x="36.6" y="825.2" class="terminal-r12" clip-path="url(#terminal-line-33)" textLength="12.2">T</text><text x="48.8" y="825.2" class="terminal-r13" clip-path="url(#terminal-line-33)" textLength="634.4">ype your message, @mention a file, or / for commands</text><text x="1439.6" y="825.2" class="terminal-r3" clip-path="url(#terminal-line-33)" textLength="12.2">│</text><text x="12.2" y="849.6" class="terminal-r3" clip-path="url(#terminal-line-34)" textLength="1439.6">╰────────────────────────────────────────────────────────────────────────────────────────────────────────────────────╯</text><text x="12.2" y="874" class="terminal-r4" clip-path="url(#terminal-line-35)" textLength="1439.6">[Ctrl+L for multi-line • Ctrl+X for custom editor] • /tmp/openhands-e2e-test-workspace ctx N/A • $ 0.00 (↑ 0 ↓ 0 cache</text><text x="12.2" y="898.4" class="terminal-r4" clip-path="url(#terminal-line-36)" textLength="48.8">N/A)</text><text x="0" y="971.6" class="terminal-r14" clip-path="url(#terminal-line-39)" textLength="48.8">^c</text><text x="48.8" y="971.6" class="terminal-r1" clip-path="url(#terminal-line-39)" textLength="61">Exit</text><text x="109.8" y="971.6" class="terminal-r14" clip-path="url(#terminal-line-39)" textLength="61">esc</text><text x="170.8" y="971.6" class="terminal-r1" clip-path="url(#terminal-line-39)" textLength="85.4">Cancel</text></g></g></svg>