<svg xmlns="http://www.w3.org/2000/svg" class="rich-terminal" viewBox="0 0 1482 1026"><style>@font-face{font-family:&quot;Fira Code&quot;;src:local(&quot;FiraCode-Regular&quot;),url(https://cdnjs.cloudflare.com/ajax/libs/firacode/6.2.0/woff2/FiraCode-Regular.woff2) format(&quot;woff2&quot;),url(https://cdnjs.cloudflare.com/ajax/libs/firacode/6.2.0/woff/FiraCode-Regular.woff) format(&quot;woff&quot;);font-style:normal;font-weight:400}@font-face{font-family:&quot;Fira Code&quot;;src:local(&quot;FiraCode-Bold&quot;),url(https://cdnjs.cloudflare.com/ajax/libs/firacode/6.2.0/woff2/FiraCode-Bold.woff2) format(&quot;woff2&quot;),url(https://cdnjs.cloudflare.com/ajax/libs/firacode/6.2.0/woff/FiraCode-Bold.woff) format(&quot;woff&quot;);font-style:bold;font-weight:700}.terminal-matrix{font-family:Fira Code,monospace;font-size:20px;line-height:24.4px;font-variant-east-asian:full-width}.terminal-title{font-size:18px;font-weight:700;font-family:arial}.terminal-r1{fill:#fff}.terminal-r3{fill:#322d14}.terminal-r4{fill:#fee165}.terminal-r5,.terminal-r6{fill:#fee165;font-weight:700}.terminal-r6{fill:#211d0d}.terminal-r7{fill:#646464}.terminal-r8{fill:#ffe165}.terminal-r9{fill:#222}.terminal-r10{fill:#1c1c1c}.terminal-r11{fill:#909090}.terminal-r12{fill:#121212}.terminal-r13{fill:#1e1e1e}.terminal-r14{fill:#6f6f6f}.terminal-r15{fill:#333}.terminal-r16{fill:#ffffa2}.terminal-r17{fill:#313131}.terminal-r18{fill:#060606}.terminal-r19{fill:#181818}.terminal-r20{fill:#fff;font-weight:700}.terminal-r21{fill:#bba325}.terminal-r22{fill:#277dff;font-weight:700}</style><defs><clipPath id="terminal-clip-terminal"><rect width="1463" height="975" x="0" y="0"/></clipPath><clipPath id="terminal-line-0"><rect width="1464" height="24.65" x="0" y="1.5"/></clipPath><clipPath id="terminal-line-1"><rect width="1464" height="24.65" x="0" y="25.9"/></clipPath><clipPath id="terminal-line-2"><rect width="1464" height="24.65" x="0" y="50.3"/></clipPath><clipPath id="terminal-line-3"><rect width="1464" height="24.65" x="0" y="74.7"/></clipPath><clipPath id="terminal-line-4"><rect width="1464" height="24.65" x="0" y="99.1"/></clipPath><clipPath id="terminal-line-5"><rect width="1464" height="24.65" x="0" y="123.5"/></clipPath><clipPath id="terminal-line-6"><rect width="1464" height="24.65" x="0" y="147.9"/></clipPath><clipPath id="terminal-line-7"><rect width="1464" height="24.65" x="0" y="172.3"/></clipPath><clipPath id="terminal-line-8"><rect width="1464" height="24.65" x="0" y="196.7"/></clipPath><clipPath id="terminal-line-9"><rect width="1464" height="24.65" x="0" y="221.1"/></clipPath><clipPath id="terminal-line-10"><rect width="1464" height="24.65" x="0" y="245.5"/></clipPath><clipPath id="terminal-line-11"><rect width="1464" height="24.65" x="0" y="269.9"/></clipPath><clipPath id="terminal-line-12"><rect width="1464" height="24.65" x="0" y="294.3"/></clipPath><clipPath id="terminal-line-13"><rect width="1464" height="24.65" x="0" y="318.7"/></clipPath><clipPath id="terminal-line-14"><rect width="1464" height="24.65" x="0" y="343.1"/></clipPath><clipPath id="terminal-line-15"><rect width="1464" height="24.65" x="0" y="367.5"/></clipPath><clipPath id="terminal-line-16"><rect width="1464" height="24.65" x="0" y="391.9"/></clipPath><clipPath id="terminal-line-17"><rect width="1464" height="24.65" x="0" y="416.3"/></clipPath><clipPath id="terminal-line-18"><rect width="1464" height="24.65" x="0" y="440.7"/></clipPath><clipPath id="terminal-line-19"><rect width="1464" height="24.65" x="0" y="465.1"/></clipPath><clipPath id="terminal-line-20"><rect width="1464" height="24.65" x="0" y="489.5"/></clipPath><clipPath id="terminal-line-21"><rect width="1464" height="24.65" x="0" y="513.9"/></clipPath><clipPath id="terminal-line-22"><rect width="1464" height="24.65" x="0" y="538.3"/></clipPath><clipPath id="terminal-line-23"><rect width="1464" height="24.65" x="0" y="562.7"/></clipPath><clipPath id="terminal-line-24"><rect width="1464" height="24.65" x="0" y="587.1"/></clipPath><clipPath id="terminal-line-25"><rect width="1464" height="24.65" x="0" y="611.5"/></clipPath><clipPath id="terminal-line-26"><rect width="1464" height="24.65" x="0" y="635.9"/></clipPath><clipPath id="terminal-line-27"><rect width="1464" height="24.65" x="0" y="660.3"/></clipPath><clipPath id="terminal-line-28"><rect width="1464" height="24.65" x="0" y="684.7"/></clipPath><clipPath id="terminal-line-29"><rect width="1464" height="24.65" x="0" y="709.1"/></clipPath><clipPath id="terminal-line-30"><rect width="1464" height="24.65" x="0" y="733.5"/></clipPath><clipPath id="terminal-line-31"><rect width="1464" height="24.65" x="0" y="757.9"/></clipPath><clipPath id="terminal-line-32"><rect width="1464" height="24.65" x="0" y="782.3"/></clipPath><clipPath id="terminal-line-33"><rect width="1464" height="24.65" x="0" y="806.7"/></clipPath><clipPath id="terminal-line-34"><rect width="1464" height="24.65" x="0" y="831.1"/></clipPath><clipPath id="terminal-line-35"><rect width="1464" height="24.65" x="0" y="855.5"/></clipPath><clipPath id="terminal-line-36"><rect width="1464" height="24.65" x="0" y="879.9"/></clipPath><clipPath id="terminal-line-37"><rect width="1464" height="24.65" x="0" y="904.3"/></clipPath><clipPath id="terminal-line-38"><rect width="1464" height="24.65" x="0" y="928.7"/></clipPath></defs><rect width="1480" height="1024" x="1" y="1" fill="#292929" stroke="rgba(255,255,255,0.35)" stroke-width="1" rx="8"/><text x="740" y="27" fill="#c5c8c6" class="terminal-title" text-anchor="middle">OpenHandsApp</text><g transform="translate(26,22)"><circle cx="0" cy="0" r="7" fill="#ff5f57"/><circle cx="22" cy="0" r="7" fill="#febc2e"/><circle cx="44" cy="0" r="7" fill="#28c840"/></g><g clip-path="url(#terminal-clip-terminal)" transform="translate(9, 41)"><rect width="1464" height="24.65" x="0" y="1.5" fill="#060606" shape-rendering="crispEdges"/><rect width="732" height="24.65" x="0" y="25.9" fill="#060606" shape-rendering="crispEdges"/><rect width="0" height="24.65" x="732" y="25.9" fill="#060606" shape-rendering="crispEdges"/><rect width="732" height="24.65" x="732" y="25.9" fill="#060606" shape-rendering="crispEdges"/><rect width="244" height="24.65" x="0" y="50.3" fill="#060606" shape-rendering="crispEdges"/><rect width="976" height="24.65" x="244" y="50.3" fill="#222" shape-rendering="crispEdges"/><rect width="244" height="24.65" x="1220" y="50.3" fill="#060606" shape-rendering="crispEdges"/><rect width="244" height="24.65" x="0" y="74.7" fill="#060606" shape-rendering="crispEdges"/><rect width="12.2" height="24.65" x="244" y="74.7" fill="#222" shape-rendering="crispEdges"/><rect width="951.6" height="24.65" x="256.2" y="74.7" fill="#222" shape-rendering="crispEdges"/><rect width="12.2" height="24.65" x="1207.8" y="74.7" fill="#222" shape-rendering="crispEdges"/><rect width="244" height="24.65" x="1220" y="74.7" fill="#060606" shape-rendering="crispEdges"/><rect width="244" height="24.65" x="0" y="99.1" fill="#060606" shape-rendering="crispEdges"/><rect width="12.2" height="24.65" x="244" y="99.1" fill="#222" shape-rendering="crispEdges"/><rect width="427" height="24.65" x="256.2" y="99.1" fill="#222" shape-rendering="crispEdges"/><rect width="97.6" height="24.65" x="683.2" y="99.1" fill="#222" shape-rendering="crispEdges"/><rect width="427" height="24.65" x="780.8" y="99.1" fill="#222" shape-rendering="crispEdges"/><rect width="12.2" height="24.65" x="1207.8" y="99.1" fill="#222" shape-rendering="crispEdges"/><rect width="244" height="24.65" x="1220" y="99.1" fill="#060606" shape-rendering="crispEdges"/><rect width="244" height="24.65" x="0" y="123.5" fill="#060606" shape-rendering="crispEdges"/><rect width="12.2" height="24.65" x="244" y="123.5" fill="#222" shape-rendering="crispEdges"/><rect width="951.6" height="24.65" x="256.2" y="123.5" fill="#222" shape-rendering="crispEdges"/><rect width="12.2" height="24.65" x="1207.8" y="123.5" fill="#222" shape-rendering="crispEdges"/><rect width="244" height="24.65" x="1220" y="123.5" fill="#060606" shape-rendering="crispEdges"/><rect width="244" height="24.65" x="0" y="147.9" fill="#060606" shape-rendering="crispEdges"/><rect width="12.2" height="24.65" x="244" y="147.9" fill="#222" shape-rendering="crispEdges"/><rect width="12.2" height="24.65" x="256.2" y="147.9" fill="#222" shape-rendering="crispEdges"/><rect width="0" height="24.65" x="268.4" y="147.9" fill="#222" shape-rendering="crispEdges"/><rect width="939.4" height="24.65" x="268.4" y="147.9" fill="#222" shape-rendering="crispEdges"/><rect width="12.2" height="24.65" x="1207.8" y="147.9" fill="#222" shape-rendering="crispEdges"/><rect width="244" height="24.65" x="1220" y="147.9" fill="#060606" shape-rendering="crispEdges"/><rect width="244" height="24.65" x="0" y="172.3" fill="#060606" shape-rendering="crispEdges"/><rect width="12.2" height="24.65" x="244" y="172.3" fill="#222" shape-rendering="crispEdges"/><rect width="12.2" height="24.65" x="256.2" y="172.3" fill="#222" shape-rendering="crispEdges"/><rect width="12.2" height="24.65" x="268.4" y="172.3" fill="#ffe165" shape-rendering="crispEdges"/><rect width="170.8" height="24.65" x="280.6" y="172.3" fill="#ffe165" shape-rendering="crispEdges"/><rect width="12.2" height="24.65" x="451.4" y="172.3" fill="#ffe165" shape-rendering="crispEdges"/><rect width="744.2" height="24.65" x="463.6" y="172.3" fill="#222" shape-rendering="crispEdges"/><rect width="12.2" height="24.65" x="1207.8" y="172.3" fill="#222" shape-rendering="crispEdges"/><rect width="244" height="24.65" x="1220" y="172.3" fill="#060606" shape-rendering="crispEdges"/><rect width="244" height="24.65" x="0" y="196.7" fill="#060606" shape-rendering="crispEdges"/><rect width="12.2" height="24.65" x="244" y="196.7" fill="#222" shape-rendering="crispEdges"/><rect width="12.2" height="24.65" x="256.2" y="196.7" fill="#222" shape-rendering="crispEdges"/><rect width="12.2" height="24.65" x="268.4" y="196.7" fill="#222" shape-rendering="crispEdges"/><rect width="170.8" height="24.65" x="280.6" y="196.7" fill="#222" shape-rendering="crispEdges"/><rect width="744.2" height="24.65" x="451.4" y="196.7" fill="#222" shape-rendering="crispEdges"/><rect width="12.2" height="24.65" x="1195.6" y="196.7" fill="#222" shape-rendering="crispEdges"/><rect width="12.2" height="24.65" x="1207.8" y="196.7" fill="#222" shape-rendering="crispEdges"/><rect width="244" height="24.65" x="1220" y="196.7" fill="#060606" shape-rendering="crispEdges"/><rect width="244" height="24.65" x="0" y="221.1" fill="#060606" shape-rendering="crispEdges"/><rect width="12.2" height="24.65" x="244" y="221.1" fill="#222" shape-rendering="crispEdges"/><rect width="951.6" height="24.65" x="256.2" y="221.1" fill="#222" shape-rendering="crispEdges"/><rect width="12.2" height="24.65" x="1207.8" y="221.1" fill="#222" shape-rendering="crispEdges"/><rect width="244" height="24.65" x="1220" y="221.1" fill="#060606" shape-rendering="crispEdges"/><rect width="244" height="24.65" x="0" y="245.5" fill="#060606" shape-rendering="crispEdges"/><rect width="12.2" height="24.65" x="244" y="245.5" fill="#222" shape-rendering="crispEdges"/><rect width="36.6" height="24.65" x="256.2" y="245.5" fill="#222" shape-rendering="crispEdges"/><rect width="170.8" height="24.65" x="292.8" y="245.5" fill="#222" shape-rendering="crispEdges"/><rect width="695.4" height="24.65" x="463.6" y="245.5" fill="#222" shape-rendering="crispEdges"/><rect width="24.4" height="24.65" x="1159" y="245.5" fill="#706433" shape-rendering="crispEdges"/><rect width="24.4" height="24.65" x="1183.4" y="245.5" fill="#222" shape-rendering="crispEdges"/><rect width="12.2" height="24.65" x="1207.8" y="245.5" fill="#222" shape-rendering="crispEdges"/><rect width="244" height="24.65" x="1220" y="245.5" fill="#060606" shape-rendering="crispEdges"/><rect width="244" height="24.65" x="0" y="269.9" fill="#060606" shape-rendering="crispEdges"/><rect width="12.2" height="24.65" x="244" y="269.9" fill="#222" shape-rendering="crispEdges"/><rect width="902.8" height="24.65" x="256.2" y="269.9" fill="#222" shape-rendering="crispEdges"/><rect width="24.4" height="24.65" x="1159" y="269.9" fill="#706433" shape-rendering="crispEdges"/><rect width="24.4" height="24.65" x="1183.4" y="269.9" fill="#222" shape-rendering="crispEdges"/><rect width="12.2" height="24.65" x="1207.8" y="269.9" fill="#222" shape-rendering="crispEdges"/><rect width="244" height="24.65" x="1220" y="269.9" fill="#060606" shape-rendering="crispEdges"/><rect width="244" height="24.65" x="0" y="294.3" fill="#060606" shape-rendering="crispEdges"/><rect width="12.2" height="24.65" x="244" y="294.3" fill="#222" shape-rendering="crispEdges"/><rect width="36.6" height="24.65" x="256.2" y="294.3" fill="#222" shape-rendering="crispEdges"/><rect width="12.2" height="24.65" x="292.8" y="294.3" fill="#1c1c1c" shape-rendering="crispEdges"/><rect width="841.8" height="24.65" x="305" y="294.3" fill="#222" shape-rendering="crispEdges"/><rect width="12.2" height="24.65" x="1146.8" y="294.3" fill="#222" shape-rendering="crispEdges"/><rect width="24.4" height="24.65" x="1159" y="294.3" fill="#706433" shape-rendering="crispEdges"/><rect width="24.4" height="24.65" x="1183.4" y="294.3" fill="#222" shape-rendering="crispEdges"/><rect width="12.2" height="24.65" x="1207.8" y="294.3" fill="#222" shape-rendering="crispEdges"/><rect width="244" height="24.65" x="1220" y="294.3" fill="#060606" shape-rendering="crispEdges"/><rect width="244" height="24.65" x="0" y="318.7" fill="#060606" shape-rendering="crispEdges"/><rect width="12.2" height="24.65" x="244" y="318.7" fill="#222" shape-rendering="crispEdges"/><rect width="36.6" height="24.65" x="256.2" y="318.7" fill="#222" shape-rendering="crispEdges"/><rect width="12.2" height="24.65" x="292.8" y="318.7" fill="#1c1c1c" shape-rendering="crispEdges"/><rect width="24.4" height="24.65" x="305" y="318.7" fill="#222" shape-rendering="crispEdges"/><rect width="61" height="24.65" x="329.4" y="318.7" fill="#222" shape-rendering="crispEdges"/><rect width="707.6" height="24.65" x="390.4" y="318.7" fill="#222" shape-rendering="crispEdges"/><rect width="12.2" height="24.65" x="1098" y="318.7" fill="#222" shape-rendering="crispEdges"/><rect width="24.4" height="24.65" x="1110.2" y="318.7" fill="#222" shape-rendering="crispEdges"/><rect width="12.2" height="24.65" x="1134.6" y="318.7" fill="#222" shape-rendering="crispEdges"/><rect width="12.2" height="24.65" x="1146.8" y="318.7" fill="#222" shape-rendering="crispEdges"/><rect width="24.4" height="24.65" x="1159" y="318.7" fill="#706433" shape-rendering="crispEdges"/><rect width="24.4" height="24.65" x="1183.4" y="318.7" fill="#222" shape-rendering="crispEdges"/><rect width="12.2" height="24.65" x="1207.8" y="318.7" fill="#222" shape-rendering="crispEdges"/><rect width="244" height="24.65" x="1220" y="318.7" fill="#060606" shape-rendering="crispEdges"/><rect width="244" height="24.65" x="0" y="343.1" fill="#060606" shape-rendering="crispEdges"/><rect width="12.2" height="24.65" x="244" y="343.1" fill="#222" shape-rendering="crispEdges"/><rect width="36.6" height="24.65" x="256.2" y="343.1" fill="#222" shape-rendering="crispEdges"/><rect width="12.2" height="24.65" x="292.8" y="343.1" fill="#1c1c1c" shape-rendering="crispEdges"/><rect width="841.8" height="24.65" x="305" y="343.1" fill="#222" shape-rendering="crispEdges"/><rect width="12.2" height="24.65" x="1146.8" y="343.1" fill="#222" shape-rendering="crispEdges"/><rect width="24.4" height="24.65" x="1159" y="343.1" fill="#121212" shape-rendering="crispEdges"/><rect width="24.4" height="24.65" x="1183.4" y="343.1" fill="#222" shape-rendering="crispEdges"/><rect width="12.2" height="24.65" x="1207.8" y="343.1" fill="#222" shape-rendering="crispEdges"/><rect width="244" height="24.65" x="1220" y="343.1" fill="#060606" shape-rendering="crispEdges"/><rect width="244" height="24.65" x="0" y="367.5" fill="#060606" shape-rendering="crispEdges"/><rect width="12.2" height="24.65" x="244" y="367.5" fill="#222" shape-rendering="crispEdges"/><rect width="902.8" height="24.65" x="256.2" y="367.5" fill="#222" shape-rendering="crispEdges"/><rect width="24.4" height="24.65" x="1159" y="367.5" fill="#121212" shape-rendering="crispEdges"/><rect width="24.4" height="24.65" x="1183.4" y="367.5" fill="#222" shape-rendering="crispEdges"/><rect width="12.2" height="24.65" x="1207.8" y="367.5" fill="#222" shape-rendering="crispEdges"/><rect width="244" height="24.65" x="1220" y="367.5" fill="#060606" shape-rendering="crispEdges"/><rect width="244" height="24.65" x="0" y="391.9" fill="#060606" shape-rendering="crispEdges"/><rect width="12.2" height="24.65" x="244" y="391.9" fill="#222" shape-rendering="crispEdges"/><rect width="902.8" height="24.65" x="256.2" y="391.9" fill="#222" shape-rendering="crispEdges"/><rect width="24.4" height="24.65" x="1159" y="391.9" fill="#121212" shape-rendering="crispEdges"/><rect width="24.4" height="24.65" x="1183.4" y="391.9" fill="#222" shape-rendering="crispEdges"/><rect width="12.2" height="24.65" x="1207.8" y="391.9" fill="#222" shape-rendering="crispEdges"/><rect width="244" height="24.65" x="1220" y="391.9" fill="#060606" shape-rendering="crispEdges"/><rect width="244" height="24.65" x="0" y="416.3" fill="#060606" shape-rendering="crispEdges"/><rect width="12.2" height="24.65" x="244" y="416.3" fill="#222" shape-rendering="crispEdges"/><rect width="48.8" height="24.65" x="256.2" y="416.3" fill="#222" shape-rendering="crispEdges"/><rect width="158.6" height="24.65" x="305" y="416.3" fill="#222" shape-rendering="crispEdges"/><rect width="695.4" height="24.65" x="463.6" y="416.3" fill="#222" shape-rendering="crispEdges"/><rect width="24.4" height="24.65" x="1159" y="416.3" fill="#121212" shape-rendering="crispEdges"/><rect width="24.4" height="24.65" x="1183.4" y="416.3" fill="#222" shape-rendering="crispEdges"/><rect width="12.2" height="24.65" x="1207.8" y="416.3" fill="#222" shape-rendering="crispEdges"/><rect width="244" height="24.65" x="1220" y="416.3" fill="#060606" shape-rendering="crispEdges"/><rect width="244" height="24.65" x="0" y="440.7" fill="#060606" shape-rendering="crispEdges"/><rect width="12.2" height="24.65" x="244" y="440.7" fill="#222" shape-rendering="crispEdges"/><rect width="902.8" height="24.65" x="256.2" y="440.7" fill="#222" shape-rendering="crispEdges"/><rect width="24.4" height="24.65" x="1159" y="440.7" fill="#121212" shape-rendering="crispEdges"/><rect width="24.4" height="24.65" x="1183.4" y="440.7" fill="#222" shape-rendering="crispEdges"/><rect width="12.2" height="24.65" x="1207.8" y="440.7" fill="#222" shape-rendering="crispEdges"/><rect width="244" height="24.65" x="1220" y="440.7" fill="#060606" shape-rendering="crispEdges"/><rect width="244" height="24.65" x="0" y="465.1" fill="#060606" shape-rendering="crispEdges"/><rect width="12.2" height="24.65" x="244" y="465.1" fill="#222" shape-rendering="crispEdges"/><rect width="48.8" height="24.65" x="256.2" y="465.1" fill="#222" shape-rendering="crispEdges"/><rect width="12.2" height="24.65" x="305" y="465.1" fill="#1c1c1c" shape-rendering="crispEdges"/><rect width="817.4" height="24.65" x="317.2" y="465.1" fill="#222" shape-rendering="crispEdges"/><rect width="24.4" height="24.65" x="1134.6" y="465.1" fill="#222" shape-rendering="crispEdges"/><rect width="24.4" height="24.65" x="1159" y="465.1" fill="#121212" shape-rendering="crispEdges"/><rect width="24.4" height="24.65" x="1183.4" y="465.1" fill="#222" shape-rendering="crispEdges"/><rect width="12.2" height="24.65" x="1207.8" y="465.1" fill="#222" shape-rendering="crispEdges"/><rect width="244" height="24.65" x="1220" y="465.1" fill="#060606" shape-rendering="crispEdges"/><rect width="244" height="24.65" x="0" y="489.5" fill="#060606" shape-rendering="crispEdges"/><rect width="12.2" height="24.65" x="244" y="489.5" fill="#222" shape-rendering="crispEdges"/><rect width="48.8" height="24.65" x="256.2" y="489.5" fill="#222" shape-rendering="crispEdges"/><rect width="12.2" height="24.65" x="305" y="489.5" fill="#1c1c1c" shape-rendering="crispEdges"/><rect width="24.4" height="24.65" x="317.2" y="489.5" fill="#222" shape-rendering="crispEdges"/><rect width="73.2" height="24.65" x="341.6" y="489.5" fill="#222" shape-rendering="crispEdges"/><rect width="671" height="24.65" x="414.8" y="489.5" fill="#222" shape-rendering="crispEdges"/><rect width="12.2" height="24.65" x="1085.8" y="489.5" fill="#222" shape-rendering="crispEdges"/><rect width="24.4" height="24.65" x="1098" y="489.5" fill="#222" shape-rendering="crispEdges"/><rect width="12.2" height="24.65" x="1122.4" y="489.5" fill="#222" shape-rendering="crispEdges"/><rect width="24.4" height="24.65" x="1134.6" y="489.5" fill="#222" shape-rendering="crispEdges"/><rect width="24.4" height="24.65" x="1159" y="489.5" fill="#121212" shape-rendering="crispEdges"/><rect width="24.4" height="24.65" x="1183.4" y="489.5" fill="#222" shape-rendering="crispEdges"/><rect width="12.2" height="24.65" x="1207.8" y="489.5" fill="#222" shape-rendering="crispEdges"/><rect width="244" height="24.65" x="1220" y="489.5" fill="#060606" shape-rendering="crispEdges"/><rect width="244" height="24.65" x="0" y="513.9" fill="#060606" shape-rendering="crispEdges"/><rect width="12.2" height="24.65" x="244" y="513.9" fill="#222" shape-rendering="crispEdges"/><rect width="48.8" height="24.65" x="256.2" y="513.9" fill="#222" shape-rendering="crispEdges"/><rect width="12.2" height="24.65" x="305" y="513.9" fill="#1c1c1c" shape-rendering="crispEdges"/><rect width="817.4" height="24.65" x="317.2" y="513.9" fill="#222" shape-rendering="crispEdges"/><rect width="24.4" height="24.65" x="1134.6" y="513.9" fill="#222" shape-rendering="crispEdges"/><rect width="24.4" height="24.65" x="1159" y="513.9" fill="#121212" shape-rendering="crispEdges"/><rect width="24.4" height="24.65" x="1183.4" y="513.9" fill="#222" shape-rendering="crispEdges"/><rect width="12.2" height="24.65" x="1207.8" y="513.9" fill="#222" shape-rendering="crispEdges"/><rect width="244" height="24.65" x="1220" y="513.9" fill="#060606" shape-rendering="crispEdges"/><rect width="244" height="24.65" x="0" y="538.3" fill="#060606" shape-rendering="crispEdges"/><rect width="12.2" height="24.65" x="244" y="538.3" fill="#222" shape-rendering="crispEdges"/><rect width="902.8" height="24.65" x="256.2" y="538.3" fill="#222" shape-rendering="crispEdges"/><rect width="24.4" height="24.65" x="1159" y="538.3" fill="#121212" shape-rendering="crispEdges"/><rect width="24.4" height="24.65" x="1183.4" y="538.3" fill="#222" shape-rendering="crispEdges"/><rect width="12.2" height="24.65" x="1207.8" y="538.3" fill="#222" shape-rendering="crispEdges"/><rect width="244" height="24.65" x="1220" y="538.3" fill="#060606" shape-rendering="crispEdges"/><rect width="244" height="24.65" x="0" y="562.7" fill="#060606" shape-rendering="crispEdges"/><rect width="12.2" height="24.65" x="244" y="562.7" fill="#222" shape-rendering="crispEdges"/><rect width="902.8" height="24.65" x="256.2" y="562.7" fill="#222" shape-rendering="crispEdges"/><rect width="24.4" height="24.65" x="1159" y="562.7" fill="#121212" shape-rendering="crispEdges"/><rect width="24.4" height="24.65" x="1183.4" y="562.7" fill="#222" shape-rendering="crispEdges"/><rect width="12.2" height="24.65" x="1207.8" y="562.7" fill="#222" shape-rendering="crispEdges"/><rect width="244" height="24.65" x="1220" y="562.7" fill="#060606" shape-rendering="crispEdges"/><rect width="244" height="24.65" x="0" y="587.1" fill="#060606" shape-rendering="crispEdges"/><rect width="12.2" height="24.65" x="244" y="587.1" fill="#222" shape-rendering="crispEdges"/><rect width="48.8" height="24.65" x="256.2" y="587.1" fill="#222" shape-rendering="crispEdges"/><rect width="122" height="24.65" x="305" y="587.1" fill="#222" shape-rendering="crispEdges"/><rect width="732" height="24.65" x="427" y="587.1" fill="#222" shape-rendering="crispEdges"/><rect width="24.4" height="24.65" x="1159" y="587.1" fill="#121212" shape-rendering="crispEdges"/><rect width="24.4" height="24.65" x="1183.4" y="587.1" fill="#222" shape-rendering="crispEdges"/><rect width="12.2" height="24.65" x="1207.8" y="587.1" fill="#222" shape-rendering="crispEdges"/><rect width="244" height="24.65" x="1220" y="587.1" fill="#060606" shape-rendering="crispEdges"/><rect width="244" height="24.65" x="0" y="611.5" fill="#060606" shape-rendering="crispEdges"/><rect width="12.2" height="24.65" x="244" y="611.5" fill="#222" shape-rendering="crispEdges"/><rect width="902.8" height="24.65" x="256.2" y="611.5" fill="#222" shape-rendering="crispEdges"/><rect width="24.4" height="24.65" x="1159" y="611.5" fill="#121212" shape-rendering="crispEdges"/><rect width="24.4" height="24.65" x="1183.4" y="611.5" fill="#222" shape-rendering="crispEdges"/><rect width="12.2" height="24.65" x="1207.8" y="611.5" fill="#222" shape-rendering="crispEdges"/><rect width="244" height="24.65" x="1220" y="611.5" fill="#060606" shape-rendering="crispEdges"/><rect width="244" height="24.65" x="0" y="635.9" fill="#060606" shape-rendering="crispEdges"/><rect width="12.2" height="24.65" x="244" y="635.9" fill="#222" shape-rendering="crispEdges"/><rect width="48.8" height="24.65" x="256.2" y="635.9" fill="#222" shape-rendering="crispEdges"/><rect width="12.2" height="24.65" x="305" y="635.9" fill="#1e1e1e" shape-rendering="crispEdges"/><rect width="817.4" height="24.65" x="317.2" y="635.9" fill="#222" shape-rendering="crispEdges"/><rect width="24.4" height="24.65" x="1134.6" y="635.9" fill="#222" shape-rendering="crispEdges"/><rect width="24.4" height="24.65" x="1159" y="635.9" fill="#121212" shape-rendering="crispEdges"/><rect width="24.4" height="24.65" x="1183.4" y="635.9" fill="#222" shape-rendering="crispEdges"/><rect width="12.2" height="24.65" x="1207.8" y="635.9" fill="#222" shape-rendering="crispEdges"/><rect width="244" height="24.65" x="1220" y="635.9" fill="#060606" shape-rendering="crispEdges"/><rect width="244" height="24.65" x="0" y="660.3" fill="#060606" shape-rendering="crispEdges"/><rect width="12.2" height="24.65" x="244" y="660.3" fill="#222" shape-rendering="crispEdges"/><rect width="48.8" height="24.65" x="256.2" y="660.3" fill="#222" shape-rendering="crispEdges"/><rect width="12.2" height="24.65" x="305" y="660.3" fill="#1e1e1e" shape-rendering="crispEdges"/><rect width="24.4" height="24.65" x="317.2" y="660.3" fill="#222" shape-rendering="crispEdges"/><rect width="73.2" height="24.65" x="341.6" y="660.3" fill="#222" shape-rendering="crispEdges"/><rect width="671" height="24.65" x="414.8" y="660.3" fill="#222" shape-rendering="crispEdges"/><rect width="12.2" height="24.65" x="1085.8" y="660.3" fill="#222" shape-rendering="crispEdges"/><rect width="24.4" height="24.65" x="1098" y="660.3" fill="#222" shape-rendering="crispEdges"/><rect width="12.2" height="24.65" x="1122.4" y="660.3" fill="#222" shape-rendering="crispEdges"/><rect width="24.4" height="24.65" x="1134.6" y="660.3" fill="#222" shape-rendering="crispEdges"/><rect width="24.4" height="24.65" x="1159" y="660.3" fill="#121212" shape-rendering="crispEdges"/><rect width="24.4" height="24.65" x="1183.4" y="660.3" fill="#222" shape-rendering="crispEdges"/><rect width="12.2" height="24.65" x="1207.8" y="660.3" fill="#222" shape-rendering="crispEdges"/><rect width="244" height="24.65" x="1220" y="660.3" fill="#060606" shape-rendering="crispEdges"/><rect width="244" height="24.65" x="0" y="684.7" fill="#060606" shape-rendering="crispEdges"/><rect width="12.2" height="24.65" x="244" y="684.7" fill="#222" shape-rendering="crispEdges"/><rect width="48.8" height="24.65" x="256.2" y="684.7" fill="#222" shape-rendering="crispEdges"/><rect width="12.2" height="24.65" x="305" y="684.7" fill="#1e1e1e" shape-rendering="crispEdges"/><rect width="817.4" height="24.65" x="317.2" y="684.7" fill="#222" shape-rendering="crispEdges"/><rect width="24.4" height="24.65" x="1134.6" y="684.7" fill="#222" shape-rendering="crispEdges"/><rect width="24.4" height="24.65" x="1159" y="684.7" fill="#121212" shape-rendering="crispEdges"/><rect width="24.4" height="24.65" x="1183.4" y="684.7" fill="#222" shape-rendering="crispEdges"/><rect width="12.2" height="24.65" x="1207.8" y="684.7" fill="#222" shape-rendering="crispEdges"/><rect width="244" height="24.65" x="1220" y="684.7" fill="#060606" shape-rendering="crispEdges"/><rect width="244" height="24.65" x="0" y="709.1" fill="#060606" shape-rendering="crispEdges"/><rect width="12.2" height="24.65" x="244" y="709.1" fill="#222" shape-rendering="crispEdges"/><rect width="951.6" height="24.65" x="256.2" y="709.1" fill="#222" shape-rendering="crispEdges"/><rect width="12.2" height="24.65" x="1207.8" y="709.1" fill="#222" shape-rendering="crispEdges"/><rect width="244" height="24.65" x="1220" y="709.1" fill="#060606" shape-rendering="crispEdges"/><rect width="244" height="24.65" x="0" y="733.5" fill="#060606" shape-rendering="crispEdges"/><rect width="12.2" height="24.65" x="244" y="733.5" fill="#222" shape-rendering="crispEdges"/><rect width="951.6" height="24.65" x="256.2" y="733.5" fill="#222" shape-rendering="crispEdges"/><rect width="12.2" height="24.65" x="1207.8" y="733.5" fill="#222" shape-rendering="crispEdges"/><rect width="244" height="24.65" x="1220" y="733.5" fill="#060606" shape-rendering="crispEdges"/><rect width="12.2" height="24.65" x="0" y="757.9" fill="#060606" shape-rendering="crispEdges"/><rect width="12.2" height="24.65" x="12.2" y="757.9" fill="#060606" shape-rendering="crispEdges"/><rect width="219.6" height="24.65" x="24.4" y="757.9" fill="#060606" shape-rendering="crispEdges"/><rect width="12.2" height="24.65" x="244" y="757.9" fill="#222" shape-rendering="crispEdges"/><rect width="951.6" height="24.65" x="256.2" y="757.9" fill="#222" shape-rendering="crispEdges"/><rect width="12.2" height="24.65" x="1207.8" y="757.9" fill="#222" shape-rendering="crispEdges"/><rect width="244" height="24.65" x="1220" y="757.9" fill="#060606" shape-rendering="crispEdges"/><rect width="12.2" height="24.65" x="0" y="782.3" fill="#060606" shape-rendering="crispEdges"/><rect width="231.8" height="24.65" x="12.2" y="782.3" fill="#060606" shape-rendering="crispEdges"/><rect width="12.2" height="24.65" x="244" y="782.3" fill="#222" shape-rendering="crispEdges"/><rect width="317.2" height="24.65" x="256.2" y="782.3" fill="#222" shape-rendering="crispEdges"/><rect width="146.4" height="24.65" x="573.4" y="782.3" fill="#fee165" shape-rendering="crispEdges"/><rect width="12.2" height="24.65" x="719.8" y="782.3" fill="#222" shape-rendering="crispEdges"/><rect width="146.4" height="24.65" x="732" y="782.3" fill="#222" shape-rendering="crispEdges"/><rect width="329.4" height="24.65" x="878.4" y="782.3" fill="#222" shape-rendering="crispEdges"/><rect width="12.2" height="24.65" x="1207.8" y="782.3" fill="#222" shape-rendering="crispEdges"/><rect width="231.8" height="24.65" x="1220" y="782.3" fill="#060606" shape-rendering="crispEdges"/><rect width="12.2" height="24.65" x="1451.8" y="782.3" fill="#060606" shape-rendering="crispEdges"/><rect width="12.2" height="24.65" x="0" y="806.7" fill="#060606" shape-rendering="crispEdges"/><rect width="12.2" height="24.65" x="12.2" y="806.7" fill="#060606" shape-rendering="crispEdges"/><rect width="12.2" height="24.65" x="24.4" y="806.7" fill="#060606" shape-rendering="crispEdges"/><rect width="12.2" height="24.65" x="36.6" y="806.7" fill="#333" shape-rendering="crispEdges"/><rect width="195.2" height="24.65" x="48.8" y="806.7" fill="#060606" shape-rendering="crispEdges"/><rect width="12.2" height="24.65" x="244" y="806.7" fill="#222" shape-rendering="crispEdges"/><rect width="317.2" height="24.65" x="256.2" y="806.7" fill="#222" shape-rendering="crispEdges"/><rect width="36.6" height="24.65" x="573.4" y="806.7" fill="#fee165" shape-rendering="crispEdges"/><rect width="73.2" height="24.65" x="610" y="806.7" fill="#fee165" shape-rendering="crispEdges"/><rect width="36.6" height="24.65" x="683.2" y="806.7" fill="#fee165" shape-rendering="crispEdges"/><rect width="36.6" height="24.65" x="719.8" y="806.7" fill="#222" shape-rendering="crispEdges"/><rect width="97.6" height="24.65" x="756.4" y="806.7" fill="#222" shape-rendering="crispEdges"/><rect width="353.8" height="24.65" x="854" y="806.7" fill="#222" shape-rendering="crispEdges"/><rect width="12.2" height="24.65" x="1207.8" y="806.7" fill="#222" shape-rendering="crispEdges"/><rect width="219.6" height="24.65" x="1220" y="806.7" fill="#060606" shape-rendering="crispEdges"/><rect width="12.2" height="24.65" x="1439.6" y="806.7" fill="#060606" shape-rendering="crispEdges"/><rect width="12.2" height="24.65" x="1451.8" y="806.7" fill="#060606" shape-rendering="crispEdges"/><rect width="12.2" height="24.65" x="0" y="831.1" fill="#060606" shape-rendering="crispEdges"/><rect width="231.8" height="24.65" x="12.2" y="831.1" fill="#060606" shape-rendering="crispEdges"/><rect width="12.2" height="24.65" x="244" y="831.1" fill="#222" shape-rendering="crispEdges"/><rect width="317.2" height="24.65" x="256.2" y="831.1" fill="#222" shape-rendering="crispEdges"/><rect width="146.4" height="24.65" x="573.4" y="831.1" fill="#fee165" shape-rendering="crispEdges"/><rect width="12.2" height="24.65" x="719.8" y="831.1" fill="#222" shape-rendering="crispEdges"/><rect width="146.4" height="24.65" x="732" y="831.1" fill="#222" shape-rendering="crispEdges"/><rect width="329.4" height="24.65" x="878.4" y="831.1" fill="#222" shape-rendering="crispEdges"/><rect width="12.2" height="24.65" x="1207.8" y="831.1" fill="#222" shape-rendering="crispEdges"/><rect width="231.8" height="24.65" x="1220" y="831.1" fill="#060606" shape-rendering="crispEdges"/><rect width="12.2" height="24.65" x="1451.8" y="831.1" fill="#060606" shape-rendering="crispEdges"/><rect width="12.2" height="24.65" x="0" y="855.5" fill="#060606" shape-rendering="crispEdges"/><rect width="231.8" height="24.65" x="12.2" y="855.5" fill="#060606" shape-rendering="crispEdges"/><rect width="12.2" height="24.65" x="244" y="855.5" fill="#222" shape-rendering="crispEdges"/><rect width="951.6" height="24.65" x="256.2" y="855.5" fill="#222" shape-rendering="crispEdges"/><rect width="12.2" height="24.65" x="1207.8" y="855.5" fill="#222" shape-rendering="crispEdges"/><rect width="231.8" height="24.65" x="1220" y="855.5" fill="#060606" shape-rendering="crispEdges"/><rect width="12.2" height="24.65" x="1451.8" y="855.5" fill="#060606" shape-rendering="crispEdges"/><rect width="12.2" height="24.65" x="0" y="879.9" fill="#060606" shape-rendering="crispEdges"/><rect width="48.8" height="24.65" x="12.2" y="879.9" fill="#060606" shape-rendering="crispEdges"/><rect width="183" height="24.65" x="61" y="879.9" fill="#060606" shape-rendering="crispEdges"/><rect width="976" height="24.65" x="244" y="879.9" fill="#222" shape-rendering="crispEdges"/><rect width="244" height="24.65" x="1220" y="879.9" fill="#060606" shape-rendering="crispEdges"/><rect width="1464" height="24.65" x="0" y="904.3" fill="#060606" shape-rendering="crispEdges"/><rect width="1464" height="24.65" x="0" y="928.7" fill="#060606" shape-rendering="crispEdges"/><rect width="48.8" height="24.65" x="0" y="953.1" fill="#222" shape-rendering="crispEdges"/><rect width="61" height="24.65" x="48.8" y="953.1" fill="#222" shape-rendering="crispEdges"/><rect width="61" height="24.65" x="109.8" y="953.1" fill="#222" shape-rendering="crispEdges"/><rect width="85.4" height="24.65" x="170.8" y="953.1" fill="#222" shape-rendering="crispEdges"/><rect width="1207.8" height="24.65" x="256.2" y="953.1" fill="#222" shape-rendering="crispEdges"/><g class="terminal-matrix"><text x="244" y="68.8" class="terminal-r4" clip-path="url(#terminal-line-2)" textLength="976">╭──────────────────────────────────────────────────────────────────────────────╮</text><text x="244" y="93.2" class="terminal-r4" clip-path="url(#terminal-line-3)" textLength="12.2">│</text><text x="1207.8" y="93.2" class="terminal-r4" clip-path="url(#terminal-line-3)" textLength="12.2">│</text><text x="244" y="117.6" class="terminal-r4" clip-path="url(#terminal-line-4)" textLength="12.2">│</text><text x="683.2" y="117.6" class="terminal-r5" clip-path="url(#terminal-line-4)" textLength="97.6">Settings</text><text x="1207.8" y="117.6" class="terminal-r4" clip-path="url(#terminal-line-4)" textLength="12.2">│</text><text x="244" y="142" class="terminal-r4" clip-path="url(#terminal-line-5)" textLength="12.2">│</text><text x="1207.8" y="142" class="terminal-r4" clip-path="url(#terminal-line-5)" textLength="12.2">│</text><text x="244" y="166.4" class="terminal-r4" clip-path="url(#terminal-line-6)" textLength="12.2">│</text><text x="1207.8" y="166.4" class="terminal-r4" clip-path="url(#terminal-line-6)" textLength="12.2">│</text><text x="244" y="190.8" class="terminal-r4" clip-path="url(#terminal-line-7)" textLength="12.2">│</text><text x="280.6" y="190.8" class="terminal-r6" clip-path="url(#terminal-line-7)" textLength="170.8">Agent Settings</text><text x="1207.8" y="190.8" class="terminal-r4" clip-path="url(#terminal-line-7)" textLength="12.2">│</text><text x="244" y="215.2" class="terminal-r4" clip-path="url(#terminal-line-8)" textLength="12.2">│</text><text x="268.4" y="215.2" class="terminal-r7" clip-path="url(#terminal-line-8)" textLength="12.2">╸</text><text x="280.6" y="215.2" class="terminal-r8" clip-path="url(#terminal-line-8)" textLength="170.8">━━━━━━━━━━━━━━</text><text x="451.4" y="215.2" class="terminal-r7" clip-path="url(#terminal-line-8)" textLength="744.2">╺━━━━━━━━━━━━━━━━━━━━━━━━━━━━━━━━━━━━━━━━━━━━━━━━━━━━━━━━━━━━</text><text x="1207.8" y="215.2" class="terminal-r4" clip-path="url(#terminal-line-8)" textLength="12.2">│</text><text x="244" y="239.6" class="terminal-r4" clip-path="url(#terminal-line-9)" textLength="12.2">│</text><text x="1207.8" y="239.6" class="terminal-r4" clip-path="url(#terminal-line-9)" textLength="12.2">│</text><text x="244" y="264" class="terminal-r4" clip-path="url(#terminal-line-10)" textLength="12.2">│</text><text x="292.8" y="264" class="terminal-r1" clip-path="url(#terminal-line-10)" textLength="170.8">Settings Mode:</text><text x="1207.8" y="264" class="terminal-r4" clip-path="url(#terminal-line-10)" textLength="12.2">│</text><text x="244" y="288.4" class="terminal-r4" clip-path="url(#terminal-line-11)" textLength="12.2">│</text><text x="1207.8" y="288.4" class="terminal-r4" clip-path="url(#terminal-line-11)" textLength="12.2">│</text><text x="244" y="312.8" class="terminal-r4" clip-path="url(#terminal-line-12)" textLength="12.2">│</text><text x="292.8" y="312.8" class="terminal-r9" clip-path="url(#terminal-line-12)" textLength="12.2">▊</text><text x="305" y="312.8" class="terminal-r10" clip-path="url(#terminal-line-12)" textLength="841.8">▔▔▔▔▔▔▔▔▔▔▔▔▔▔▔▔▔▔▔▔▔▔▔▔▔▔▔▔▔▔▔▔▔▔▔▔▔▔▔▔▔▔▔▔▔▔▔▔▔▔▔▔▔▔▔▔▔▔▔▔▔▔▔▔▔▔▔▔▎</text><text x="1207.8" y="312.8" class="terminal-r4" clip-path="url(#terminal-line-12)" textLength="12.2">│</text><text x="244" y="337.2" class="terminal-r4" clip-path="url(#terminal-line-13)" textLength="12.2">│</text><text x="292.8" y="337.2" class="terminal-r9" clip-path="url(#terminal-line-13)" textLength="12.2">▊</text><text x="329.4" y="337.2" class="terminal-r1" clip-path="url(#terminal-line-13)" textLength="61">Basic</text><text x="1098" y="337.2" class="terminal-r11" clip-path="url(#terminal-line-13)" textLength="12.2">▼</text><text x="1134.6" y="337.2" class="terminal-r10" clip-path="url(#terminal-line-13)" textLength="12.2">▎</text><text x="1159" y="337.2" class="terminal-r12" clip-path="url(#terminal-line-13)" textLength="24.4">▄▄</text><text x="1207.8" y="337.2" class="terminal-r4" clip-path="url(#terminal-line-13)" textLength="12.2">│</text><text x="244" y="361.6" class="terminal-r4" clip-path="url(#terminal-line-14)" textLength="12.2">│</text><text x="292.8" y="361.6" class="terminal-r9" clip-path="url(#terminal-line-14)" textLength="12.2">▊</text><text x="305" y="361.6" class="terminal-r10" clip-path="url(#terminal-line-14)" textLength="841.8">▁▁▁▁▁▁▁▁▁▁▁▁▁▁▁▁▁▁▁▁▁▁▁▁▁▁▁▁▁▁▁▁▁▁▁▁▁▁▁▁▁▁▁▁▁▁▁▁▁▁▁▁▁▁▁▁▁▁▁▁▁▁▁▁▁▁▁▁▎</text><text x="1207.8" y="361.6" class="terminal-r4" clip-path="url(#terminal-line-14)" textLength="12.2">│</text><text x="244" y="386" class="terminal-r4" clip-path="url(#terminal-line-15)" textLength="12.2">│</text><text x="1207.8" y="386" class="terminal-r4" clip-path="url(#terminal-line-15)" textLength="12.2">│</text><text x="244" y="410.4" class="terminal-r4" clip-path="url(#terminal-line-16)" textLength="12.2">│</text><text x="1207.8" y="410.4" class="terminal-r4" clip-path="url(#terminal-line-16)" textLength="12.2">│</text><text x="244" y="434.8" class="terminal-r4" clip-path="url(#terminal-line-17)" textLength="12.2">│</text><text x="305" y="434.8" class="terminal-r1" clip-path="url(#terminal-line-17)" textLength="158.6">LLM Provider:</text><text x="1207.8" y="434.8" class="terminal-r4" clip-path="url(#terminal-line-17)" textLength="12.2">│</text><text x="244" y="459.2" class="terminal-r4" clip-path="url(#terminal-line-18)" textLength="12.2">│</text><text x="1207.8" y="459.2" class="terminal-r4" clip-path="url(#terminal-line-18)" textLength="12.2">│</text><text x="244" y="483.6" class="terminal-r4" clip-path="url(#terminal-line-19)" textLength="12.2">│</text><text x="305" y="483.6" class="terminal-r9" clip-path="url(#terminal-line-19)" textLength="12.2">▊</text><text x="317.2" y="483.6" class="terminal-r10" clip-path="url(#terminal-line-19)" textLength="817.4">▔▔▔▔▔▔▔▔▔▔▔▔▔▔▔▔▔▔▔▔▔▔▔▔▔▔▔▔▔▔▔▔▔▔▔▔▔▔▔▔▔▔▔▔▔▔▔▔▔▔▔▔▔▔▔▔▔▔▔▔▔▔▔▔▔▔▎</text><text x="1207.8" y="483.6" class="terminal-r4" clip-path="url(#terminal-line-19)" textLength="12.2">│</text><text x="244" y="508" class="terminal-r4" clip-path="url(#terminal-line-20)" textLength="12.2">│</text><text x="305" y="508" class="terminal-r9" clip-path="url(#terminal-line-20)" textLength="12.2">▊</text><text x="341.6" y="508" class="terminal-r11" clip-path="url(#terminal-line-20)" textLength="73.2">Select</text><text x="1085.8" y="508" class="terminal-r11" clip-path="url(#terminal-line-20)" textLength="12.2">▼</text><text x="1122.4" y="508" class="terminal-r10" clip-path="url(#terminal-line-20)" textLength="12.2">▎</text><text x="1207.8" y="508" class="terminal-r4" clip-path="url(#terminal-line-20)" textLength="12.2">│</text><text x="244" y="532.4" class="terminal-r4" clip-path="url(#terminal-line-21)" textLength="12.2">│</text><text x="305" y="532.4" class="terminal-r9" clip-path="url(#terminal-line-21)" textLength="12.2">▊</text><text x="317.2" y="532.4" class="terminal-r10" clip-path="url(#terminal-line-21)" textLength="817.4">▁▁▁▁▁▁▁▁▁▁▁▁▁▁▁▁▁▁▁▁▁▁▁▁▁▁▁▁▁▁▁▁▁▁▁▁▁▁▁▁▁▁▁▁▁▁▁▁▁▁▁▁▁▁▁▁▁▁▁▁▁▁▁▁▁▁▎</text><text x="1207.8" y="532.4" class="terminal-r4" clip-path="url(#terminal-line-21)" textLength="12.2">│</text><text x="244" y="556.8" class="terminal-r4" clip-path="url(#terminal-line-22)" textLength="12.2">│</text><text x="1207.8" y="556.8" class="terminal-r4" clip-path="url(#terminal-line-22)" textLength="12.2">│</text><text x="244" y="581.2" class="terminal-r4" clip-path="url(#terminal-line-23)" textLength="12.2">│</text><text x="1207.8" y="581.2" class="terminal-r4" clip-path="url(#terminal-line-23)" textLength="12.2">│</text><text x="244" y="605.6" class="terminal-r4" clip-path="url(#terminal-line-24)" textLength="12.2">│</text><text x="305" y="605.6" class="terminal-r1" clip-path="url(#terminal-line-24)" textLength="122">LLM Model:</text><text x="1207.8" y="605.6" class="terminal-r4" clip-path="url(#terminal-line-24)" textLength="12.2">│</text><text x="244" y="630" class="terminal-r4" clip-path="url(#terminal-line-25)" textLength="12.2">│</text><text x="1207.8" y="630" class="terminal-r4" clip-path="url(#terminal-line-25)" textLength="12.2">│</text><text x="244" y="654.4" class="terminal-r4" clip-path="url(#terminal-line-26)" textLength="12.2">│</text><text x="305" y="654.4" class="terminal-r9" clip-path="url(#terminal-line-26)" textLength="12.2">▊</text><text x="317.2" y="654.4" class="terminal-r13" clip-path="url(#terminal-line-26)" textLength="817.4">▔▔▔▔▔▔▔▔▔▔▔▔▔▔▔▔▔▔▔▔▔▔▔▔▔▔▔▔▔▔▔▔▔▔▔▔▔▔▔▔▔▔▔▔▔▔▔▔▔▔▔▔▔▔▔▔▔▔▔▔▔▔▔▔▔▔▎</text><text x="1207.8" y="654.4" class="terminal-r4" clip-path="url(#terminal-line-26)" textLength="12.2">│</text><text x="244" y="678.8" class="terminal-r4" clip-path="url(#terminal-line-27)" textLength="12.2">│</text><text x="305" y="678.8" class="terminal-r9" clip-path="url(#terminal-line-27)" textLength="12.2">▊</text><text x="341.6" y="678.8" class="terminal-r14" clip-path="url(#terminal-line-27)" textLength="73.2">Select</text><text x="1085.8" y="678.8" class="terminal-r14" clip-path="url(#terminal-line-27)" textLength="12.2">▼</text><text x="1122.4" y="678.8" class="terminal-r13" clip-path="url(#terminal-line-27)" textLength="12.2">▎</text><text x="1207.8" y="678.8" class="terminal-r4" clip-path="url(#terminal-line-27)" textLength="12.2">│</text><text x="244" y="703.2" class="terminal-r4" clip-path="url(#terminal-line-28)" textLength="12.2">│</text><text x="305" y="703.2" class="terminal-r9" clip-path="url(#terminal-line-28)" textLength="12.2">▊</text><text x="317.2" y="703.2" class="terminal-r13" clip-path="url(#terminal-line-28)" textLength="817.4">▁▁▁▁▁▁▁▁▁▁▁▁▁▁▁▁▁▁▁▁▁▁▁▁▁▁▁▁▁▁▁▁▁▁▁▁▁▁▁▁▁▁▁▁▁▁▁▁▁▁▁▁▁▁▁▁▁▁▁▁▁▁▁▁▁▁▎</text><text x="1207.8" y="703.2" class="terminal-r4" clip-path="url(#terminal-line-28)" textLength="12.2">│</text><text x="244" y="727.6" class="terminal-r4" clip-path="url(#terminal-line-29)" textLength="12.2">│</text><text x="1207.8" y="727.6" class="terminal-r4" clip-path="url(#terminal-line-29)" textLength="12.2">│</text><text x="244" y="752" class="terminal-r4" clip-path="url(#terminal-line-30)" textLength="12.2">│</text><text x="1207.8" y="752" class="terminal-r4" clip-path="url(#terminal-line-30)" textLength="12.2">│</text><text x="244" y="776.4" class="terminal-r4" clip-path="url(#terminal-line-31)" textLength="12.2">│</text><text x="1207.8" y="776.4" class="terminal-r4" clip-path="url(#terminal-line-31)" textLength="12.2">│</text><text x="12.2" y="800.8" class="terminal-r3" clip-path="url(#terminal-line-32)" textLength="231.8">╭──────────────────</text><text x="244" y="800.8" class="terminal-r4" clip-path="url(#terminal-line-32)" textLength="12.2">│</text><text x="573.4" y="800.8" class="terminal-r16" clip-path="url(#terminal-line-32)" textLength="146.4">▔▔▔▔▔▔▔▔▔▔▔▔</text><text x="732" y="800.8" class="terminal-r17" clip-path="url(#terminal-line-32)" textLength="146.4">▔▔▔▔▔▔▔▔▔▔▔▔</text><text x="1207.8" y="800.8" class="terminal-r4" clip-path="url(#terminal-line-32)" textLength="12.2">│</text><text x="1220" y="800.8" class="terminal-r3" clip-path="url(#terminal-line-32)" textLength="231.8">──────────────────╮</text><text x="12.2" y="825.2" class="terminal-r3" clip-path="url(#terminal-line-33)" textLength="12.2">│</text><text x="36.6" y="825.2" class="terminal-r18" clip-path="url(#terminal-line-33)" textLength="12.2">T</text><text x="48.8" y="825.2" class="terminal-r19" clip-path="url(#terminal-line-33)" textLength="195.2">ype your message</text><text x="244" y="825.2" class="terminal-r4" clip-path="url(#terminal-line-33)" textLength="12.2">│</text><text x="610" y="825.2" class="terminal-r6" clip-path="url(#terminal-line-33)" textLength="73.2">Save</text><text x="756.4" y="825.2" class="terminal-r20" clip-path="url(#terminal-line-33)" textLength="97.6">Cancel</text><text x="1207.8" y="825.2" class="terminal-r4" clip-path="url(#terminal-line-33)" textLength="12.2">│</text><text x="1439.6" y="825.2" class="terminal-r3" clip-path="url(#terminal-line-33)" textLength="12.2">│</text><text x="12.2" y="849.6" class="terminal-r3" clip-path="url(#terminal-line-34)" textLength="231.8">╰──────────────────</text><text x="244" y="849.6" class="terminal-r4" clip-path="url(#terminal-line-34)" textLength="12.2">│</text><text x="573.4" y="849.6" class="terminal-r21" clip-path="url(#terminal-line-34)" textLength="146.4">▁▁▁▁▁▁▁▁▁▁▁▁</text><text x="732" y="849.6" class="terminal-r12" clip-path="url(#terminal-line-34)" textLength="146.4">▁▁▁▁▁▁▁▁▁▁▁▁</text><text x="1207.8" y="849.6" class="terminal-r4" clip-path="url(#terminal-line-34)" textLength="12.2">│</text><text x="1220" y="849.6" class="terminal-r3" clip-path="url(#terminal-line-34)" textLength="231.8">──────────────────╯</text><text x="12.2" y="874" class="terminal-r15" clip-path="url(#terminal-line-35)" textLength="231.8">[Ctrl+L for multi-l</text><text x="244" y="874" class="terminal-r4" clip-path="url(#terminal-line-35)" textLength="12.2">│</text><text x="1207.8" y="874" class="terminal-r4" clip-path="url(#terminal-line-35)" textLength="12.2">│</text><text x="1220" y="874" class="terminal-r15" clip-path="url(#terminal-line-35)" textLength="231.8">0.00 (↑ 0 ↓ 0 cache</text><text x="12.2" y="898.4" class="terminal-r15" clip-path="url(#terminal-line-36)" textLength="48.8">N/A)</text><text x="244" y="898.4" class="terminal-r4" clip-path="url(#terminal-line-36)" textLength="976">╰──────────────────────────────────────────────────────────────────────────────╯</text><text x="0" y="971.6" class="terminal-r22" clip-path="url(#terminal-line-39)" textLength="48.8">^c</text><text x="48.8" y="971.6" class="terminal-r1" clip-path="url(#terminal-line-39)" textLength="61">Exit</text><text x="109.8" y="971.6" class="terminal-r22" clip-path="url(#terminal-line-39)" textLength="61">esc</text><text x="170.8" y="971.6" class="terminal-r1" clip-path="url(#terminal-line-39)" textLength="85.4">Cancel</text></g></g></svg>